<svg width="40" height="40" viewBox="0 0 20 20" fill="none" xmlns="http://www.w3.org/2000/svg">
<path d="M8.51143 1.66587C8.69902 1.45637 8.92868 1.28878 9.18542 1.17404C9.44216 1.0593 9.72022 1 10.0014 1C10.2826 1 10.5607 1.0593 10.8174 1.17404C11.0742 1.28878 11.3038 1.45637 11.4914 1.66587L12.1914 2.44787C12.3915 2.67137 12.6393 2.847 12.9164 2.96177C13.1935 3.07653 13.4929 3.12749 13.7924 3.11087L14.8424 3.05287C15.1233 3.03739 15.4042 3.08132 15.6669 3.18179C15.9297 3.28227 16.1682 3.43703 16.3671 3.63596C16.5659 3.8349 16.7205 4.07354 16.8209 4.3363C16.9212 4.59906 16.965 4.88003 16.9494 5.16087L16.8914 6.20987C16.875 6.5092 16.926 6.80841 17.0408 7.08536C17.1555 7.36231 17.3311 7.60992 17.5544 7.80987L18.3364 8.50987C18.5461 8.69746 18.7138 8.92718 18.8287 9.18402C18.9435 9.44086 19.0029 9.71903 19.0029 10.0004C19.0029 10.2817 18.9435 10.5599 18.8287 10.8167C18.7138 11.0736 18.5461 11.3033 18.3364 11.4909L17.5544 12.1909C17.3309 12.3909 17.1553 12.6387 17.0405 12.9158C16.9258 13.193 16.8748 13.4924 16.8914 13.7919L16.9494 14.8419C16.9649 15.1227 16.921 15.4037 16.8205 15.6664C16.72 15.9291 16.5653 16.1677 16.3663 16.3665C16.1674 16.5653 15.9288 16.72 15.666 16.8203C15.4032 16.9207 15.1223 16.9645 14.8414 16.9489L13.7924 16.8909C13.4931 16.8744 13.1939 16.9254 12.9169 17.0402C12.64 17.155 12.3924 17.3305 12.1924 17.5539L11.4924 18.3359C11.3048 18.5455 11.0751 18.7133 10.8183 18.8281C10.5614 18.9429 10.2833 19.0023 10.0019 19.0023C9.72059 19.0023 9.44241 18.9429 9.18558 18.8281C8.92874 18.7133 8.69902 18.5455 8.51143 18.3359L7.81143 17.5539C7.61137 17.3304 7.3636 17.1547 7.08646 17.04C6.80933 16.9252 6.50993 16.8743 6.21043 16.8909L5.16043 16.9489C4.87959 16.9644 4.59863 16.9204 4.33592 16.82C4.0732 16.7195 3.83464 16.5647 3.6358 16.3658C3.43695 16.1668 3.28231 15.9282 3.18196 15.6654C3.08161 15.4027 3.03781 15.1217 3.05343 14.8409L3.11143 13.7919C3.1279 13.4925 3.07686 13.1933 2.9621 12.9164C2.84734 12.6394 2.67179 12.3918 2.44843 12.1919L1.66643 11.4919C1.45676 11.3043 1.28903 11.0746 1.17419 10.8177C1.05936 10.5609 1 10.2827 1 10.0014C1 9.72003 1.05936 9.44186 1.17419 9.18502C1.28903 8.92818 1.45676 8.69846 1.66643 8.51087L2.44843 7.81087C2.67193 7.61081 2.84756 7.36304 2.96232 7.0859C3.07709 6.80877 3.12805 6.50937 3.11143 6.20987L3.05343 5.15987C3.03809 4.87911 3.08213 4.59827 3.18267 4.33567C3.28321 4.07308 3.43799 3.83464 3.63691 3.63591C3.83583 3.43717 4.07442 3.28262 4.33711 3.18233C4.5998 3.08204 4.88068 3.03827 5.16143 3.05387L6.21043 3.11187C6.50976 3.12834 6.80897 3.07731 7.08592 2.96254C7.36287 2.84778 7.61048 2.67223 7.81043 2.44887L8.51143 1.66587Z" stroke="black" stroke-width="1.5"/>
<path d="M7.50098 7.5H7.51098V7.51H7.50098V7.5ZM12.501 12.5H12.511V12.51H12.501V12.5Z" stroke="black" stroke-width="2.25" stroke-linejoin="round"/>
<path d="M13.001 7L7.00098 13" stroke="black" stroke-width="1.5" stroke-linecap="round" stroke-linejoin="round"/>
</svg>
