<svg width="14" height="15" viewBox="0 0 14 15" fill="none" xmlns="http://www.w3.org/2000/svg">
<path d="M1 7.11773L5.98901 2.128C6.34109 1.77192 6.7601 1.48895 7.22192 1.29537C7.68375 1.10179 8.17929 1.00141 8.68004 1.00001C9.1808 0.998618 9.67689 1.09623 10.1398 1.28723C10.6027 1.47823 11.0233 1.75885 11.3773 2.11297C11.7314 2.46708 12.012 2.88769 12.2029 3.35062C12.3938 3.81354 12.4914 4.30964 12.4899 4.8104C12.4884 5.31115 12.388 5.80668 12.1944 6.26848C12.0007 6.73028 11.7177 7.14924 11.3616 7.50128L5.60546 13.2581C5.13043 13.7331 4.48616 14 3.81437 14C3.14258 14 2.4983 13.7331 2.02328 13.2581C1.54825 12.7831 1.28138 12.1388 1.28138 11.467C1.28138 10.7952 1.54825 10.1509 2.02328 9.67592L7.78083 3.91981C8.02033 3.69272 8.33902 3.56809 8.66904 3.57247C8.99907 3.57686 9.31434 3.70991 9.54772 3.94329C9.7811 4.17667 9.91415 4.49195 9.91854 4.82197C9.92292 5.15199 9.79829 5.47068 9.5712 5.71018L4.58146 10.6992" stroke="black" stroke-width="1.5" stroke-linecap="round" stroke-linejoin="round"/>
</svg>
