<svg width="14" height="14" viewBox="0 0 14 14" fill="none" xmlns="http://www.w3.org/2000/svg">
<path d="M6.0625 5.0625C6.0625 5.0625 6.13542 4.98958 6.28125 4.84375C6.42708 4.69792 6.5 4.41667 6.5 4C6.5 3.58333 6.35417 3.22917 6.0625 2.9375C5.77083 2.64583 5.41667 2.5 5 2.5C4.58333 2.5 4.22917 2.64583 3.9375 2.9375C3.64583 3.22917 3.5 3.58333 3.5 4C3.5 4.21875 3.54948 4.4349 3.64844 4.64844C3.4349 4.54948 3.21875 4.5 3 4.5C2.58333 4.5 2.22917 4.64583 1.9375 4.9375C1.64583 5.22917 1.5 5.58333 1.5 6C1.5 6.41667 1.64583 6.77083 1.9375 7.0625C2.22917 7.35417 2.58333 7.5 3 7.5C3.41667 7.5 3.77083 7.35417 4.0625 7.0625C4.35417 6.77083 4.5 6.41667 4.5 6C4.5 5.78125 4.45052 5.5651 4.35156 5.35156C4.5651 5.45052 4.78125 5.5 5 5.5C5.41667 5.5 5.77083 5.35417 6.0625 5.0625ZM13.1484 9.5C13.1484 9.58854 13.0208 9.76042 12.7656 10.0156C12.5104 10.2708 12.3385 10.3984 12.25 10.3984C12.2031 10.3984 12.1289 10.3568 12.0273 10.2734C11.9258 10.1901 11.8307 10.1042 11.7422 10.0156C11.6536 9.92708 11.5534 9.82292 11.4414 9.70312C11.3294 9.58333 11.2656 9.51562 11.25 9.5L10.5 10.25L12.2188 11.9688C12.3646 12.1146 12.4375 12.2917 12.4375 12.5C12.4375 12.7188 12.3359 12.9297 12.1328 13.1328C11.9297 13.3359 11.7188 13.4375 11.5 13.4375C11.2917 13.4375 11.1146 13.3646 10.9688 13.2188L5.72656 7.97656C4.8099 8.65885 3.85938 9 2.875 9C2.02604 9 1.33464 8.73307 0.800781 8.19922C0.266927 7.66536 0 6.97396 0 6.125C0 5.29167 0.247396 4.47656 0.742188 3.67969C1.23698 2.88281 1.88281 2.23698 2.67969 1.74219C3.47656 1.2474 4.29167 1 5.125 1C5.97396 1 6.66536 1.26693 7.19922 1.80078C7.73307 2.33464 8 3.02604 8 3.875C8 4.85938 7.65885 5.8099 6.97656 6.72656L9.75 9.5L10.5 8.75C10.4844 8.73438 10.4167 8.67057 10.2969 8.55859C10.1771 8.44661 10.0729 8.34635 9.98438 8.25781C9.89583 8.16927 9.8099 8.07422 9.72656 7.97266C9.64323 7.87109 9.60156 7.79688 9.60156 7.75C9.60156 7.66146 9.72917 7.48958 9.98438 7.23438C10.2396 6.97917 10.4115 6.85156 10.5 6.85156C10.5677 6.85156 10.6276 6.8776 10.6797 6.92969C10.7109 6.96094 10.8307 7.07682 11.0391 7.27734C11.2474 7.47786 11.4609 7.6849 11.6797 7.89844C11.8984 8.11198 12.1237 8.33594 12.3555 8.57031C12.5872 8.80469 12.7773 9.00781 12.9258 9.17969C13.0742 9.35156 13.1484 9.45833 13.1484 9.5Z" fill="#00A9F0"/>
</svg>
