<svg width="22" height="31" viewBox="0 0 22 31" fill="none" xmlns="http://www.w3.org/2000/svg">
<path d="M10.9998 5V8C9.51448 7.99734 8.06182 8.43577 6.82599 9.2597C5.59015 10.0836 4.62678 11.256 4.05802 12.6281C3.48926 14.0002 3.34071 15.5102 3.63121 16.9669C3.92172 18.4235 4.63818 19.7611 5.68979 20.81L3.57479 22.925C2.10618 21.4565 1.10603 19.5856 0.700824 17.5487C0.295617 15.5118 0.503553 13.4004 1.29834 11.4817C2.09312 9.563 3.43905 7.92307 5.1659 6.76933C6.89276 5.61558 8.92297 4.99985 10.9998 5ZM18.4248 8.075C19.8934 9.54346 20.8935 11.4144 21.2987 13.4513C21.704 15.4882 21.496 17.5996 20.7012 19.5183C19.9065 21.437 18.5605 23.0769 16.8337 24.2307C15.1068 25.3844 13.0766 26.0002 10.9998 26V23C12.4851 23.0027 13.9377 22.5642 15.1736 21.7403C16.4094 20.9164 17.3728 19.744 17.9416 18.3719C18.5103 16.9998 18.6589 15.4898 18.3684 14.0331C18.0779 12.5765 17.3614 11.2389 16.3098 10.19L18.4248 8.075ZM10.9998 30.5L4.99979 24.5L10.9998 18.5V30.5ZM10.9998 12.5V0.5L16.9998 6.5L10.9998 12.5Z" fill="#1B1C1E"/>
</svg>
