<svg width="27" height="26" viewBox="0 0 17 16" fill="none" xmlns="http://www.w3.org/2000/svg">
<path d="M8.44238 0C3.98524 0 0.442383 3.54286 0.442383 8C0.442383 12.4571 3.98524 16 8.44238 16C12.8995 16 16.4424 12.4571 16.4424 8C16.4424 3.54286 12.8995 0 8.44238 0ZM8.44238 14.8571C4.67095 14.8571 1.58524 11.7714 1.58524 8C1.58524 4.22857 4.67095 1.14286 8.44238 1.14286C12.2138 1.14286 15.2995 4.22857 15.2995 8C15.2995 11.7714 12.2138 14.8571 8.44238 14.8571Z" fill="black"/>
<path d="M11.5281 12L8.44238 8.91429L5.35667 12L4.44238 11.0857L7.5281 8L4.44238 4.91429L5.35667 4L8.44238 7.08571L11.5281 4L12.4424 4.91429L9.35667 8L12.4424 11.0857L11.5281 12Z" fill="black"/>
</svg>
