<svg width="18" height="18" viewBox="0 0 18 18" fill="none" xmlns="http://www.w3.org/2000/svg">
<path d="M8.2056 16.1969H7.084C4.216 16.1969 2.7824 16.1969 1.8912 15.2889C1 14.3809 1 12.9193 1 9.99688C1 7.07448 1 5.61288 1.8912 4.70488C2.7824 3.79688 4.216 3.79688 7.084 3.79688H10.1264C12.9944 3.79688 14.4288 3.79688 15.32 4.70488C16.0056 5.40328 16.1632 6.42968 16.2 8.19688" stroke="black" stroke-width="1.5" stroke-linecap="round" stroke-linejoin="round"/>
<path d="M14.48 14.48L13.4 13.76V11.96M12.2 3.8L12.12 3.552C11.7248 2.32 11.5264 1.704 11.0552 1.352C10.5832 1 9.9576 1 8.7056 1H8.4944C7.2424 1 6.616 1 6.1448 1.352C5.6728 1.704 5.4752 2.32 5.0792 3.552L5 3.8M9.8 13.4C9.8 13.8728 9.89312 14.3409 10.074 14.7777C10.255 15.2144 10.5201 15.6113 10.8544 15.9456C11.1887 16.2799 11.5856 16.545 12.0223 16.726C12.4591 16.9069 12.9272 17 13.4 17C13.8728 17 14.3409 16.9069 14.7777 16.726C15.2144 16.545 15.6113 16.2799 15.9456 15.9456C16.2799 15.6113 16.545 15.2144 16.726 14.7777C16.9069 14.3409 17 13.8728 17 13.4C17 12.4452 16.6207 11.5295 15.9456 10.8544C15.2705 10.1793 14.3548 9.8 13.4 9.8C12.4452 9.8 11.5295 10.1793 10.8544 10.8544C10.1793 11.5295 9.8 12.4452 9.8 13.4Z" stroke="black" stroke-width="1.5" stroke-linecap="round" stroke-linejoin="round"/>
</svg>
