<svg width="48" height="48" viewBox="0 0 48 48" fill="none" xmlns="http://www.w3.org/2000/svg">
<rect y="-0.00732422" width="48" height="48" rx="24" fill="#00A1FF" fill-opacity="0.2"/>
<path d="M24 20.9927C22.9974 20.9927 22.138 20.6346 21.4219 19.9185C20.7057 19.2023 20.3477 18.3358 20.3477 17.3188C20.3477 16.3019 20.7057 15.4354 21.4219 14.7192C22.138 14.0031 22.9974 13.645 24 13.645C25.0026 13.645 25.862 14.0031 26.5781 14.7192C27.2943 15.4354 27.6523 16.3019 27.6523 17.3188C27.6523 18.3358 27.2943 19.2023 26.5781 19.9185C25.862 20.6346 25.0026 20.9927 24 20.9927ZM24 22.8403C24.9167 22.8403 25.9193 22.9692 27.0078 23.2271C28.2396 23.5422 29.2279 23.9575 29.9727 24.4731C30.8893 25.0747 31.3477 25.7479 31.3477 26.4927V27.395C31.3477 27.6528 31.2546 27.8748 31.0684 28.061C30.8822 28.2472 30.6602 28.3403 30.4023 28.3403H17.5977C17.3398 28.3403 17.1178 28.2472 16.9316 28.061C16.7454 27.8748 16.6523 27.6528 16.6523 27.395V26.4927C16.6523 25.7479 17.1107 25.0747 18.0273 24.4731C18.7721 23.9575 19.7604 23.5422 20.9922 23.2271C22.0807 22.9692 23.0833 22.8403 24 22.8403Z" fill="#00A1FF"/>
</svg>
