<svg width="24" height="25" viewBox="0 0 24 25" fill="none" xmlns="http://www.w3.org/2000/svg">
<path d="M5.01562 6.5C4.73438 6.5 4.49219 6.39844 4.28906 6.19531C4.08594 5.99219 3.98438 5.75781 3.98438 5.49219C3.98438 5.22656 4.08594 4.99219 4.28906 4.78906C4.49219 4.58594 4.73438 4.48438 5.01562 4.48438H18.9844C19.2656 4.48438 19.5078 4.58594 19.7109 4.78906C19.9141 4.99219 20.0156 5.22656 20.0156 5.49219C20.0156 5.75781 19.9141 5.99219 19.7109 6.19531C19.5078 6.39844 19.2656 6.5 18.9844 6.5H5.01562ZM20.1562 8.28125L21.1406 13.2969C21.2031 13.6094 21.1406 13.8906 20.9531 14.1406C20.7656 14.3906 20.5156 14.5156 20.2031 14.5156H20.0156V19.4844C20.0156 19.7656 19.9141 20.0078 19.7109 20.2109C19.5078 20.4141 19.2734 20.5156 19.0078 20.5156C18.7422 20.5156 18.5078 20.4141 18.3047 20.2109C18.1016 20.0078 18 19.7656 18 19.4844V14.5156H14.0156V19.4844C14.0156 19.7656 13.9141 20.0078 13.7109 20.2109C13.5078 20.4141 13.2656 20.5156 12.9844 20.5156H5.01562C4.73438 20.5156 4.49219 20.4141 4.28906 20.2109C4.08594 20.0078 3.98438 19.7656 3.98438 19.4844V14.5156H3.79688C3.48438 14.5156 3.23438 14.3906 3.04688 14.1406C2.85938 13.8906 2.79688 13.6094 2.85938 13.2969L3.84375 8.28125C3.875 8.0625 3.98438 7.875 4.17188 7.71875C4.35938 7.5625 4.57812 7.48438 4.82812 7.48438H19.1719C19.4219 7.48438 19.6406 7.5625 19.8281 7.71875C20.0156 7.875 20.125 8.0625 20.1562 8.28125ZM12 18.5V14.5156H6V18.5H12Z" fill="white"/>
</svg>
