<svg width="23" height="22" viewBox="0 0 23 22" fill="none" xmlns="http://www.w3.org/2000/svg">
                <g clip-path="url(#clip0_153_314)">
                <path d="M6.73744 0.871653C6.73744 0.871653 7.0771 0.726377 7.75642 0.435827C8.43573 0.145275 9.52018 0 11.0098 0C12.4993 0 13.9235 0.29055 15.2821 0.871653C16.6407 1.45275 17.8111 2.23438 18.7932 3.21652C19.7754 4.19866 20.557 5.36905 21.1381 6.72768C21.7192 8.08631 22.0098 9.51042 22.0098 11C22.0098 12.4814 21.7213 13.9014 21.1443 15.26C20.5672 16.6187 19.7877 17.7891 18.8055 18.7712C17.8234 19.7533 16.653 20.537 15.2944 21.1222C13.9357 21.7074 12.5075 22 11.0098 22C9.512 22 8.0838 21.7094 6.72517 21.1283C5.36654 20.5472 4.1982 19.7636 3.22014 18.7773C2.24209 17.7911 1.46252 16.6207 0.881417 15.2662C0.300316 13.9116 0.00976562 12.4896 0.00976562 11C0.00976562 9.51042 0.300316 8.08631 0.881417 6.72768C1.46252 5.36905 2.24414 4.19866 3.22628 3.21652C4.20843 2.23438 5.37881 1.45275 6.73744 0.871653ZM18.6091 16.5859C19.8286 14.9081 20.4383 13.0461 20.4383 11C20.4383 9.72321 20.1887 8.50372 19.6895 7.34152C19.1902 6.17932 18.5191 5.17671 17.6761 4.33371C16.8331 3.4907 15.8305 2.81957 14.6682 2.32031C13.506 1.82106 12.2866 1.57143 11.0098 1.57143C9.73298 1.57143 8.51349 1.82106 7.35128 2.32031C6.18908 2.81957 5.18648 3.4907 4.34347 4.33371C3.50046 5.17671 2.82933 6.17932 2.33008 7.34152C1.83082 8.50372 1.58119 9.72321 1.58119 11C1.58119 13.0461 2.19094 14.9081 3.41044 16.5859C3.95061 13.9096 5.20285 12.5714 7.16713 12.5714C8.2393 13.619 9.52018 14.1429 11.0098 14.1429C12.4993 14.1429 13.7802 13.619 14.8524 12.5714C16.8167 12.5714 18.0689 13.9096 18.6091 16.5859ZM14.3429 11.976C14.3429 11.976 14.5731 11.7458 15.0335 11.2854C15.4939 10.8251 15.7241 9.9442 15.7241 8.64286C15.7241 7.34152 15.2637 6.23047 14.3429 5.30971C13.4222 4.38895 12.3111 3.92857 11.0098 3.92857C9.70843 3.92857 8.59738 4.38895 7.67662 5.30971C6.75586 6.23047 6.29548 7.34152 6.29548 8.64286C6.29548 9.9442 6.75586 11.0552 7.67662 11.976C8.59738 12.8968 9.70843 13.3571 11.0098 13.3571C12.3111 13.3571 13.4222 12.8968 14.3429 11.976Z" fill="white"/>
                </g>
                <defs>
                <clipPath id="clip0_153_314">
                <rect width="22.02" height="22" fill="white" transform="matrix(1 0 0 -1 0 22)"/>
                </clipPath>
                </defs>
                </svg>