<svg width="24" height="25" viewBox="0 0 24 25" fill="none" xmlns="http://www.w3.org/2000/svg">
                        <path d="M6.98438 18.5C7.54688 18.5 8.02344 18.6953 8.41406 19.0859C8.80469 19.4766 9 19.9453 9 20.4922C9 21.0391 8.80469 21.5078 8.41406 21.8984C8.02344 22.2891 7.55469 22.4844 7.00781 22.4844C6.46094 22.4844 5.99219 22.2891 5.60156 21.8984C5.21094 21.5078 5.01562 21.0391 5.01562 20.4922C5.01562 19.9453 5.21094 19.4766 5.60156 19.0859C5.99219 18.6953 6.45312 18.5 6.98438 18.5ZM0.984375 3.5C0.984375 3.21875 1.08594 2.98438 1.28906 2.79688C1.49219 2.60938 1.73438 2.51562 2.01562 2.51562H3.65625C3.84375 2.51562 4.01562 2.5625 4.17188 2.65625C4.32812 2.75 4.45312 2.89062 4.54688 3.07812L5.20312 4.48438H20.0156C20.2969 4.48438 20.5312 4.58594 20.7188 4.78906C20.9062 4.99219 21 5.23438 21 5.51562C21 5.67188 20.9531 5.82812 20.8594 5.98438L17.2969 12.4531C17.1406 12.7656 16.9062 13.0156 16.5938 13.2031C16.2812 13.3906 15.9375 13.4844 15.5625 13.4844H8.10938L6.98438 15.5H18C18.2812 15.5 18.5156 15.6016 18.7031 15.8047C18.8906 16.0078 18.9844 16.2422 18.9844 16.5078C18.9844 16.7734 18.8906 17.0078 18.7031 17.2109C18.5156 17.4141 18.2812 17.5156 18 17.5156H6.98438C6.51562 17.5156 6.10156 17.3594 5.74219 17.0469C5.38281 16.7344 5.14844 16.3438 5.03906 15.875C4.92969 15.4062 5 14.9531 5.25 14.5156L6.60938 12.0781L3 4.48438H2.01562C1.73438 4.48438 1.49219 4.39062 1.28906 4.20312C1.08594 4.01562 0.984375 3.78125 0.984375 3.5ZM17.0156 18.5C17.5469 18.5 18.0078 18.6953 18.3984 19.0859C18.7891 19.4766 18.9844 19.9453 18.9844 20.4922C18.9844 21.0391 18.7891 21.5078 18.3984 21.8984C18.0078 22.2891 17.5391 22.4844 16.9922 22.4844C16.4453 22.4844 15.9766 22.2891 15.5859 21.8984C15.1953 21.5078 15 21.0391 15 20.4922C15 19.9453 15.1953 19.4766 15.5859 19.0859C15.9766 18.6953 16.4531 18.5 17.0156 18.5Z" fill="#0E1E2E"/>
                        </svg>