<svg width="48" height="48" viewBox="0 0 48 48" fill="none" xmlns="http://www.w3.org/2000/svg">
<rect y="-0.00732422" width="48" height="48" rx="24" fill="#00A1FF" fill-opacity="0.2"/>
<path d="M30.875 17.3403C31.1901 17.3403 31.4336 17.4549 31.6055 17.6841L33.7109 20.52C33.9688 20.8351 34.0977 21.1932 34.0977 21.5942V24.645C34.0977 24.9028 34.0046 25.1248 33.8184 25.311C33.6322 25.4972 33.4102 25.5903 33.1523 25.5903H32.25C32.25 26.3351 31.985 26.9797 31.4551 27.5239C30.9251 28.0682 30.2734 28.3403 29.5 28.3403C28.7266 28.3403 28.0749 28.0682 27.5449 27.5239C27.015 26.9797 26.75 26.3351 26.75 25.5903H21.25C21.25 26.3351 20.985 26.9797 20.4551 27.5239C19.9251 28.0682 19.2734 28.3403 18.5 28.3403C17.7266 28.3403 17.0749 28.0682 16.5449 27.5239C16.015 26.9797 15.75 26.3351 15.75 25.5903C15.2344 25.5903 14.7975 25.4113 14.4395 25.0532C14.0814 24.6951 13.9023 24.2583 13.9023 23.7427V15.4927C13.9023 14.9771 14.0814 14.5402 14.4395 14.1821C14.7975 13.8241 15.2344 13.645 15.75 13.645H26.75C27.2656 13.645 27.7025 13.8241 28.0605 14.1821C28.4186 14.5402 28.5977 14.9771 28.5977 15.4927V17.3403H30.875ZM18.5 26.4927C18.7578 26.4927 18.9727 26.3996 19.1445 26.2134C19.3164 26.0272 19.4023 25.8123 19.4023 25.5688C19.4023 25.3254 19.3164 25.1105 19.1445 24.9243C18.9727 24.7381 18.7578 24.645 18.5 24.645C18.2422 24.645 18.0273 24.7381 17.8555 24.9243C17.6836 25.1105 17.5977 25.3254 17.5977 25.5688C17.5977 25.8123 17.6836 26.0272 17.8555 26.2134C18.0273 26.3996 18.2422 26.4927 18.5 26.4927ZM30.875 18.7153H28.5977V20.9927H32.6797L30.875 18.7153ZM29.5 26.4927C29.7578 26.4927 29.9727 26.3996 30.1445 26.2134C30.3164 26.0272 30.4023 25.8123 30.4023 25.5688C30.4023 25.3254 30.3164 25.1105 30.1445 24.9243C29.9727 24.7381 29.7578 24.645 29.5 24.645C29.2422 24.645 29.0273 24.7381 28.8555 24.9243C28.6836 25.1105 28.5977 25.3254 28.5977 25.5688C28.5977 25.8123 28.6836 26.0272 28.8555 26.2134C29.0273 26.3996 29.2422 26.4927 29.5 26.4927Z" fill="#00A1FF"/>
</svg>
