<svg width="11" height="15" viewBox="0 0 11 15" fill="none" xmlns="http://www.w3.org/2000/svg">
                    <g clip-path="url(#clip0_153_68)">
                    <path d="M10.2002 11.8499C10.2002 12.4176 10.0374 12.9045 9.71191 13.3108C9.38639 13.717 8.99447 13.9202 8.53613 13.9202H1.86426C1.40592 13.9202 1.014 13.717 0.688477 13.3108C0.362956 12.9045 0.200195 12.4176 0.200195 11.8499C0.200195 11.4071 0.222331 10.9892 0.266602 10.5959C0.310872 10.2027 0.392904 9.80688 0.512695 9.40845C0.632487 9.01001 0.784831 8.66886 0.969727 8.38501C1.15462 8.10116 1.39941 7.86938 1.7041 7.6897C2.00879 7.51001 2.35905 7.42017 2.75488 7.42017C3.43717 8.08683 4.25228 8.42017 5.2002 8.42017C6.14811 8.42017 6.96322 8.08683 7.64551 7.42017C8.04134 7.42017 8.3916 7.51001 8.69629 7.6897C9.00098 7.86938 9.24577 8.10116 9.43066 8.38501C9.61556 8.66886 9.7679 9.01001 9.8877 9.40845C10.0075 9.80688 10.0895 10.2027 10.1338 10.5959C10.1781 10.9892 10.2002 11.4071 10.2002 11.8499ZM7.32129 2.79907C7.32129 2.79907 7.46777 2.94556 7.76074 3.23853C8.05371 3.53149 8.2002 4.09204 8.2002 4.92017C8.2002 5.74829 7.90723 6.45532 7.32129 7.04126C6.73535 7.6272 6.02832 7.92017 5.2002 7.92017C4.37207 7.92017 3.66504 7.6272 3.0791 7.04126C2.49316 6.45532 2.2002 5.74829 2.2002 4.92017C2.2002 4.09204 2.49316 3.38501 3.0791 2.79907C3.66504 2.21313 4.37207 1.92017 5.2002 1.92017C6.02832 1.92017 6.73535 2.21313 7.32129 2.79907Z" fill="white"/>
                    </g>
                    <defs>
                    <clipPath id="clip0_153_68">
                    <rect width="10" height="14" fill="white" transform="matrix(1 0 0 -1 0.200195 14.9202)"/>
                    </clipPath>
                    </defs>
                    </svg>