
<svg width="24" height="25" viewBox="0 0 24 25" fill="none" xmlns="http://www.w3.org/2000/svg">
                        <path d="M12 12.5C10.9062 12.5 9.96875 12.1094 9.1875 11.3281C8.40625 10.5469 8.01562 9.60156 8.01562 8.49219C8.01562 7.38281 8.40625 6.4375 9.1875 5.65625C9.96875 4.875 10.9062 4.48438 12 4.48438C13.0938 4.48438 14.0312 4.875 14.8125 5.65625C15.5938 6.4375 15.9844 7.38281 15.9844 8.49219C15.9844 9.60156 15.5938 10.5469 14.8125 11.3281C14.0312 12.1094 13.0938 12.5 12 12.5ZM12 14.5156C13 14.5156 14.0938 14.6562 15.2812 14.9375C16.625 15.2812 17.7031 15.7344 18.5156 16.2969C19.5156 16.9531 20.0156 17.6875 20.0156 18.5V19.4844C20.0156 19.7656 19.9141 20.0078 19.7109 20.2109C19.5078 20.4141 19.2656 20.5156 18.9844 20.5156H5.01562C4.73438 20.5156 4.49219 20.4141 4.28906 20.2109C4.08594 20.0078 3.98438 19.7656 3.98438 19.4844V18.5C3.98438 17.6875 4.48437 16.9531 5.48438 16.2969C6.29688 15.7344 7.375 15.2812 8.71875 14.9375C9.90625 14.6562 11 14.5156 12 14.5156Z" fill="#ADB5BD"/>
                        </svg>