<svg width="22" height="23" viewBox="0 0 22 23" fill="none" xmlns="http://www.w3.org/2000/svg">
<path d="M18.3477 3.37891C18.8346 3.37891 19.2572 3.55794 19.6152 3.91602C19.9733 4.27409 20.1523 4.71094 20.1523 5.22656V19.8789C20.1523 20.3945 19.9733 20.8314 19.6152 21.1895C19.2572 21.5475 18.8346 21.7266 18.3477 21.7266H3.65234C3.16536 21.7266 2.74284 21.5475 2.38477 21.1895C2.02669 20.8314 1.84766 20.3945 1.84766 19.8789V5.22656C1.84766 4.71094 2.02669 4.27409 2.38477 3.91602C2.74284 3.55794 3.16536 3.37891 3.65234 3.37891H4.59766V2.47656C4.59766 2.21875 4.68359 1.99674 4.85547 1.81055C5.02734 1.62435 5.24219 1.53125 5.5 1.53125C5.75781 1.53125 5.97266 1.62435 6.14453 1.81055C6.31641 1.99674 6.40234 2.21875 6.40234 2.47656V3.37891H15.5977V2.47656C15.5977 2.21875 15.6836 1.99674 15.8555 1.81055C16.0273 1.62435 16.2422 1.53125 16.5 1.53125C16.7578 1.53125 16.9727 1.62435 17.1445 1.81055C17.3164 1.99674 17.4023 2.21875 17.4023 2.47656V3.37891H18.3477ZM17.4023 19.8789C17.6602 19.8789 17.8822 19.7858 18.0684 19.5996C18.2546 19.4134 18.3477 19.2057 18.3477 18.9766V7.97656H3.65234V18.9766C3.65234 19.2057 3.74544 19.4134 3.93164 19.5996C4.11784 19.7858 4.33984 19.8789 4.59766 19.8789H17.4023Z" fill="#212529"/>
</svg>
