 <svg width="19" height="20" viewBox="0 0 19 20" fill="none" xmlns="http://www.w3.org/2000/svg">
                <path d="M15.7153 13.6262C15.7153 13.5362 15.7071 13.4707 15.6907 13.4298C15.6743 13.3889 15.6007 13.3213 15.4697 13.2272C15.3388 13.1331 15.173 13.0308 14.9725 12.9203C14.772 12.8098 14.5776 12.7014 14.3894 12.595C14.2011 12.4886 14.0149 12.3862 13.8308 12.288C13.6466 12.1898 13.53 12.1284 13.4809 12.1039C13.44 12.0793 13.3622 12.0261 13.2476 11.9443C13.133 11.8624 13.0307 11.8011 12.9407 11.7601C12.8507 11.7192 12.7647 11.6987 12.6829 11.6987C12.5601 11.6987 12.4108 11.7826 12.2348 11.9504C12.0588 12.1182 11.8972 12.3024 11.7499 12.5029C11.6025 12.7034 11.445 12.8875 11.2772 13.0553C11.1094 13.2231 10.9723 13.307 10.8659 13.307C10.8086 13.307 10.7411 13.2927 10.6634 13.264C10.5856 13.2354 10.5222 13.2088 10.4731 13.1842C10.424 13.1597 10.3544 13.1208 10.2644 13.0676C10.1743 13.0144 10.117 12.9796 10.0925 12.9633C9.28223 12.5131 8.58654 11.9954 8.00544 11.4102C7.42434 10.825 6.90462 10.1273 6.44629 9.31705C6.42992 9.2925 6.39514 9.23521 6.34194 9.14518C6.28874 9.05515 6.24986 8.98558 6.22531 8.93647C6.20075 8.88736 6.17415 8.82393 6.14551 8.74618C6.11686 8.66843 6.10254 8.60091 6.10254 8.54361C6.10254 8.43721 6.18643 8.30012 6.35421 8.13234C6.522 7.96456 6.70615 7.80701 6.90667 7.65969C7.10719 7.51236 7.29134 7.35072 7.45912 7.17475C7.62691 6.99878 7.7108 6.84942 7.7108 6.72665C7.7108 6.6448 7.69034 6.55887 7.64941 6.46884C7.60849 6.37881 7.54711 6.2765 7.46526 6.16192C7.38342 6.04733 7.33022 5.96958 7.30566 5.92866C7.28111 5.87955 7.21973 5.76292 7.12151 5.57877C7.0233 5.39462 6.92099 5.20842 6.81459 5.02018C6.70819 4.83193 6.59975 4.63755 6.48926 4.43703C6.37877 4.23651 6.27646 4.07077 6.18234 3.93982C6.08822 3.80887 6.02069 3.73521 5.97977 3.71884C5.93885 3.70247 5.87337 3.69428 5.78334 3.69428C5.39049 3.69428 4.97717 3.78431 4.54339 3.96437C4.1669 4.13625 3.83952 4.52297 3.56124 5.12453C3.28297 5.72609 3.14383 6.26013 3.14383 6.72665C3.14383 6.8576 3.15406 6.99674 3.17453 7.14406C3.19499 7.29138 3.21545 7.41619 3.23591 7.5185C3.25637 7.62081 3.2932 7.75585 3.3464 7.92364C3.3996 8.09142 3.44052 8.21214 3.46917 8.2858C3.49781 8.35946 3.54897 8.49451 3.62263 8.69094C3.69629 8.88736 3.7413 9.01013 3.75767 9.05924C4.24874 10.4015 5.13472 11.7131 6.4156 12.9939C7.69648 14.2748 9.00805 15.1608 10.3503 15.6519C10.3994 15.6682 10.5222 15.7133 10.7186 15.7869C10.915 15.8606 11.0501 15.9117 11.1237 15.9404C11.1974 15.969 11.3181 16.0099 11.4859 16.0631C11.6537 16.1163 11.7887 16.1532 11.891 16.1736C11.9934 16.1941 12.1182 16.2146 12.2655 16.235C12.4128 16.2555 12.5519 16.2657 12.6829 16.2657C13.1494 16.2657 13.6835 16.1266 14.285 15.8483C14.8866 15.57 15.2733 15.2426 15.4452 14.8662C15.6252 14.4324 15.7153 14.0191 15.7153 13.6262ZM18.8581 4.08714V15.8729C18.8581 16.8468 18.5123 17.6796 17.8207 18.3712C17.1291 19.0628 16.2964 19.4086 15.3224 19.4086H3.53669C2.56273 19.4086 1.72996 19.0628 1.03837 18.3712C0.346773 17.6796 0.000976562 16.8468 0.000976562 15.8729V4.08714C0.000976562 3.11318 0.346773 2.28041 1.03837 1.58881C1.72996 0.897223 2.56273 0.551426 3.53669 0.551426H15.3224C16.2964 0.551426 17.1291 0.897223 17.8207 1.58881C18.5123 2.28041 18.8581 3.11318 18.8581 4.08714Z" fill="white"/>
                </svg>
                