<svg width="24" height="25" viewBox="0 0 24 25" fill="none" xmlns="http://www.w3.org/2000/svg">
                        <path d="M9.98438 19.4844C9.98438 19.7656 9.89062 20.0078 9.70312 20.2109C9.51562 20.4141 9.28125 20.5156 9 20.5156H6C5.71875 20.5156 5.48438 20.4141 5.29688 20.2109C5.10938 20.0078 5.01562 19.7656 5.01562 19.4844V12.5H3.28125C3.0625 12.5 2.91406 12.3906 2.83594 12.1719C2.75781 11.9531 2.79688 11.7656 2.95312 11.6094L11.3438 4.10938C11.5312 3.92188 11.75 3.82812 12 3.82812C12.25 3.82812 12.4688 3.92188 12.6562 4.10938L21.0469 11.6094C21.2031 11.7656 21.2422 11.9531 21.1641 12.1719C21.0859 12.3906 20.9375 12.5 20.7188 12.5H18.9844V19.4844C18.9844 19.7656 18.8906 20.0078 18.7031 20.2109C18.5156 20.4141 18.2812 20.5156 18 20.5156H15C14.7188 20.5156 14.4844 20.4141 14.2969 20.2109C14.1094 20.0078 14.0156 19.7656 14.0156 19.4844V14.5156H9.98438V19.4844Z" fill="#ADB5BD"/>
                        </svg>