<svg width="10" height="14" viewBox="0 0 10 14" fill="none" xmlns="http://www.w3.org/2000/svg">
                        <path d="M10 10.9297C10 11.4974 9.83724 11.9844 9.51172 12.3906C9.1862 12.7969 8.79427 13 8.33594 13H1.66406C1.20573 13 0.813802 12.7969 0.488281 12.3906C0.16276 11.9844 0 11.4974 0 10.9297C0 10.487 0.0221354 10.069 0.0664062 9.67578C0.110677 9.28255 0.192708 8.88672 0.3125 8.48828C0.432292 8.08984 0.584635 7.7487 0.769531 7.46484C0.954427 7.18099 1.19922 6.94922 1.50391 6.76953C1.80859 6.58984 2.15885 6.5 2.55469 6.5C3.23698 7.16667 4.05208 7.5 5 7.5C5.94792 7.5 6.76302 7.16667 7.44531 6.5C7.84115 6.5 8.19141 6.58984 8.49609 6.76953C8.80078 6.94922 9.04557 7.18099 9.23047 7.46484C9.41536 7.7487 9.56771 8.08984 9.6875 8.48828C9.80729 8.88672 9.88932 9.28255 9.93359 9.67578C9.97786 10.069 10 10.487 10 10.9297ZM7.12109 1.87891C7.12109 1.87891 7.26758 2.02539 7.56055 2.31836C7.85352 2.61133 8 3.17188 8 4C8 4.82812 7.70703 5.53516 7.12109 6.12109C6.53516 6.70703 5.82812 7 5 7C4.17188 7 3.46484 6.70703 2.87891 6.12109C2.29297 5.53516 2 4.82812 2 4C2 3.17188 2.29297 2.46484 2.87891 1.87891C3.46484 1.29297 4.17188 1 5 1C5.82812 1 6.53516 1.29297 7.12109 1.87891Z" fill="#00A9F0"/>
                        </svg>