<svg width="17" height="12" viewBox="0 0 17 12" fill="none" xmlns="http://www.w3.org/2000/svg">
<path d="M15.9375 0H1.0625C0.780707 0 0.510456 0.114935 0.311199 0.31952C0.111942 0.524105 0 0.801582 0 1.09091L0 10.9091C0 11.1984 0.111942 11.4759 0.311199 11.6805C0.510456 11.8851 0.780707 12 1.0625 12H15.9375C16.2193 12 16.4895 11.8851 16.6888 11.6805C16.8881 11.4759 17 11.1984 17 10.9091V1.09091C17 0.801582 16.8881 0.524105 16.6888 0.31952C16.4895 0.114935 16.2193 0 15.9375 0ZM1.0625 1.09091H15.9375V10.9091H1.0625V1.09091ZM14.4319 5.45455H7.96875C7.82785 5.45455 7.69273 5.51201 7.5931 5.61431C7.49347 5.7166 7.4375 5.85534 7.4375 6C7.4375 6.14466 7.49347 6.2834 7.5931 6.38569C7.69273 6.48799 7.82785 6.54545 7.96875 6.54545H14.4319C14.5728 6.54545 14.708 6.48799 14.8076 6.38569C14.9072 6.2834 14.9632 6.14466 14.9632 6C14.9632 5.85534 14.9072 5.7166 14.8076 5.61431C14.708 5.51201 14.5728 5.45455 14.4319 5.45455ZM14.4319 7.63636H7.96875C7.82785 7.63636 7.69273 7.69383 7.5931 7.79612C7.49347 7.89842 7.4375 8.03716 7.4375 8.18182C7.4375 8.32648 7.49347 8.46522 7.5931 8.56751C7.69273 8.66981 7.82785 8.72727 7.96875 8.72727H14.4319C14.5728 8.72727 14.708 8.66981 14.8076 8.56751C14.9072 8.46522 14.9632 8.32648 14.9632 8.18182C14.9632 8.03716 14.9072 7.89842 14.8076 7.79612C14.708 7.69383 14.5728 7.63636 14.4319 7.63636ZM14.4319 3.27273H7.96875C7.82785 3.27273 7.69273 3.33019 7.5931 3.43249C7.49347 3.53478 7.4375 3.67352 7.4375 3.81818C7.4375 3.96285 7.49347 4.10158 7.5931 4.20388C7.69273 4.30617 7.82785 4.36364 7.96875 4.36364H14.4319C14.5728 4.36364 14.708 4.30617 14.8076 4.20388C14.9072 4.10158 14.9632 3.96285 14.9632 3.81818C14.9632 3.67352 14.9072 3.53478 14.8076 3.43249C14.708 3.33019 14.5728 3.27273 14.4319 3.27273ZM2.96438 3.49964C2.96438 3.84914 3.0996 4.18434 3.3403 4.43147C3.58101 4.67861 3.90747 4.81745 4.24787 4.81745C4.58828 4.81745 4.91474 4.67861 5.15545 4.43147C5.39615 4.18434 5.53137 3.84914 5.53137 3.49964C5.53137 3.15013 5.39615 2.81494 5.15545 2.5678C4.91474 2.32066 4.58828 2.18182 4.24787 2.18182C3.90747 2.18182 3.58101 2.32066 3.3403 2.5678C3.0996 2.81494 2.96438 3.15013 2.96438 3.49964ZM4.2755 5.34436C3.11525 5.34436 2.176 6.63818 2.176 8.23527C2.176 9.83236 6.375 9.83127 6.375 8.23527C6.375 6.63927 5.43469 5.34436 4.2755 5.34436Z" fill="#00A9F0"/>
</svg>
