<svg width="25" height="26" viewBox="0 0 25 26" fill="none" xmlns="http://www.w3.org/2000/svg">
                <path d="M3.00418 21.7933L4.41251 16.6183C3.48453 15.0275 2.99699 13.2183 3.00001 11.3766C3.00001 5.6235 7.66356 0.959961 13.4167 0.959961C19.1698 0.959961 23.8333 5.6235 23.8333 11.3766C23.8333 17.1298 19.1698 21.7933 13.4167 21.7933C11.5758 21.7963 9.76736 21.3091 8.1771 20.3818L3.00418 21.7933ZM9.65731 6.48913C9.52279 6.49748 9.39134 6.53291 9.27085 6.59329C9.15785 6.65728 9.0547 6.73728 8.9646 6.83079C8.8396 6.9485 8.76876 7.05059 8.69272 7.14954C8.30773 7.65058 8.10065 8.2656 8.10418 8.89746C8.10626 9.40788 8.2396 9.90475 8.44793 10.3693C8.87397 11.3089 9.57501 12.3037 10.5011 13.2256C10.724 13.4475 10.9417 13.6704 11.1761 13.8777C12.3254 14.8896 13.6951 15.6194 15.1761 16.0089L15.7688 16.0995C15.9615 16.11 16.1542 16.0954 16.3479 16.086C16.6513 16.0703 16.9475 15.9882 17.2156 15.8454C17.352 15.7751 17.4852 15.6986 17.6146 15.6162C17.6146 15.6162 17.6594 15.587 17.7448 15.5225C17.8854 15.4183 17.9719 15.3443 18.0886 15.2225C18.175 15.1329 18.25 15.0277 18.3073 14.9079C18.3886 14.7381 18.4698 14.4141 18.5031 14.1443C18.5281 13.9381 18.5208 13.8256 18.5177 13.7558C18.5136 13.6443 18.4208 13.5287 18.3198 13.4798L17.7136 13.2079C17.7136 13.2079 16.8073 12.8131 16.2542 12.561C16.1959 12.5356 16.1334 12.5211 16.0698 12.5183C15.9985 12.511 15.9265 12.519 15.8586 12.5418C15.7907 12.5646 15.7284 12.6017 15.6761 12.6506V12.6485C15.6708 12.6485 15.6011 12.7079 14.8479 13.6204C14.8047 13.6785 14.7452 13.7224 14.6769 13.7465C14.6086 13.7706 14.5347 13.7738 14.4646 13.7558C14.3967 13.7376 14.3302 13.7147 14.2656 13.687C14.1365 13.6329 14.0917 13.612 14.0031 13.5735L13.9979 13.5714C13.402 13.3112 12.8502 12.9598 12.3625 12.5298C12.2313 12.4152 12.1094 12.2902 11.9844 12.1693C11.5746 11.7769 11.2174 11.3329 10.9219 10.8485L10.8604 10.7495C10.8163 10.683 10.7806 10.6113 10.7542 10.536C10.7146 10.3829 10.8177 10.26 10.8177 10.26C10.8177 10.26 11.0708 9.98288 11.1886 9.83288C11.2866 9.70821 11.378 9.57852 11.4625 9.44434C11.5854 9.24642 11.624 9.04329 11.5594 8.886C11.2677 8.1735 10.9656 7.46413 10.6552 6.75996C10.5938 6.62038 10.4115 6.52038 10.2458 6.50059C10.1896 6.49434 10.1333 6.48809 10.0771 6.48392C9.93721 6.47697 9.79703 6.4794 9.65731 6.48913Z" fill="#F8F9FA"/>
                </svg>
                