<svg width="48" height="48" viewBox="0 0 48 48" fill="none" xmlns="http://www.w3.org/2000/svg">
<rect y="-0.00732422" width="48" height="48" rx="24" fill="#00A1FF" fill-opacity="0.2"/>
<path d="M24 20.9927C24.5156 20.9927 24.9525 20.8136 25.3105 20.4556C25.6686 20.0975 25.8477 19.6678 25.8477 19.1665C25.8477 18.6652 25.6686 18.2355 25.3105 17.8774C24.9525 17.5194 24.5156 17.3403 24 17.3403C23.4844 17.3403 23.0475 17.5194 22.6895 17.8774C22.3314 18.2355 22.1523 18.6652 22.1523 19.1665C22.1523 19.6678 22.3314 20.0975 22.6895 20.4556C23.0475 20.8136 23.4844 20.9927 24 20.9927ZM24 11.8403C25.2891 11.8403 26.4922 12.1483 27.6094 12.7642C28.7266 13.38 29.6146 14.2466 30.2734 15.3638C30.9896 16.5382 31.3477 17.8703 31.3477 19.3599C31.3477 22.2531 29.099 25.6763 24.6016 29.6294C24.4297 29.7726 24.2292 29.8442 24 29.8442C23.7708 29.8442 23.5703 29.7726 23.3984 29.6294C18.901 25.6763 16.6523 22.2531 16.6523 19.3599C16.6523 17.8703 17.0104 16.5382 17.7266 15.3638C18.3854 14.2466 19.2734 13.38 20.3906 12.7642C21.5078 12.1483 22.7109 11.8403 24 11.8403Z" fill="#00A1FF"/>
</svg>
