<svg width="17" height="12" viewBox="0 0 17 12" fill="none" xmlns="http://www.w3.org/2000/svg">
<path d="M14.4484 12H2.39212C1.75792 11.9993 1.14991 11.747 0.701458 11.2985C0.25301 10.8501 0.000744805 10.2421 0 9.60788V2.39212C0.000744805 1.75792 0.25301 1.14991 0.701458 0.701458C1.14991 0.25301 1.75792 0.000744805 2.39212 0H14.4484C15.0826 0.000744805 15.6906 0.25301 16.1391 0.701458C16.5875 1.14991 16.8398 1.75792 16.8405 2.39212V9.60788C16.8398 10.2421 16.5875 10.8501 16.1391 11.2985C15.6906 11.747 15.0826 11.9993 14.4484 12ZM2.39212 0.844278C1.98161 0.844278 1.58791 1.00735 1.29763 1.29763C1.00735 1.58791 0.844278 1.98161 0.844278 2.39212V9.60788C0.844278 10.0184 1.00735 10.4121 1.29763 10.7024C1.58791 10.9926 1.98161 11.1557 2.39212 11.1557H14.4484C14.8589 11.1557 15.2526 10.9926 15.5429 10.7024C15.8332 10.4121 15.9962 10.0184 15.9962 9.60788V2.39212C15.9962 1.98161 15.8332 1.58791 15.5429 1.29763C15.2526 1.00735 14.8589 0.844278 14.4484 0.844278H2.39212Z" fill="#00A9F0"/>
<path d="M8.41999 7.71108C7.89923 7.71189 7.39239 7.54295 6.97627 7.22984L0.404976 2.25986C0.358546 2.22727 0.319161 2.18566 0.28917 2.13752C0.25918 2.08937 0.2392 2.03568 0.230425 1.97964C0.221649 1.9236 0.224257 1.86636 0.238094 1.81135C0.25193 1.75634 0.276711 1.70469 0.310956 1.65947C0.345201 1.61425 0.388208 1.5764 0.437409 1.54817C0.486609 1.51994 0.540994 1.50192 0.597315 1.49518C0.653636 1.48844 0.710737 1.49312 0.76521 1.50894C0.819682 1.52476 0.870407 1.55139 0.914356 1.58725L7.48565 6.56286C7.75551 6.7643 8.08324 6.87314 8.41999 6.87314C8.75673 6.87314 9.08447 6.7643 9.35432 6.56286L15.9256 1.58725C15.9696 1.55139 16.0203 1.52476 16.0748 1.50894C16.1292 1.49312 16.1863 1.48844 16.2427 1.49518C16.299 1.50192 16.3534 1.51994 16.4026 1.54817C16.4518 1.5764 16.4948 1.61425 16.529 1.65947C16.5633 1.70469 16.588 1.75634 16.6019 1.81135C16.6157 1.86636 16.6183 1.9236 16.6095 1.97964C16.6008 2.03568 16.5808 2.08937 16.5508 2.13752C16.5208 2.18566 16.4814 2.22727 16.435 2.25986L9.8637 7.22984C9.44758 7.54295 8.94075 7.71189 8.41999 7.71108Z" fill="#00A9F0"/>
<path d="M0.587798 10.8237C0.502181 10.8239 0.418549 10.7979 0.348 10.7494C0.277451 10.7009 0.22332 10.6321 0.19279 10.5521C0.16226 10.4721 0.156774 10.3847 0.17706 10.3016C0.197346 10.2184 0.242445 10.1433 0.306372 10.0864L5.48461 5.46819C5.5682 5.39356 5.67803 5.35518 5.78991 5.36152C5.9018 5.36785 6.00659 5.41837 6.08123 5.50197C6.15587 5.58556 6.19424 5.69538 6.18791 5.80727C6.18158 5.91916 6.13106 6.02395 6.04746 6.09859L0.869224 10.7168C0.792324 10.7868 0.691758 10.825 0.587798 10.8237ZM16.252 10.8237C16.148 10.825 16.0474 10.7868 15.9705 10.7168L10.7923 6.09859C10.7087 6.02395 10.6582 5.91916 10.6519 5.80727C10.6455 5.69538 10.6839 5.58556 10.7585 5.50197C10.8332 5.41837 10.938 5.36785 11.0498 5.36152C11.1617 5.35518 11.2716 5.39356 11.3552 5.46819L16.5306 10.0864C16.5945 10.1433 16.6396 10.2184 16.6599 10.3016C16.6802 10.3847 16.6747 10.4721 16.6442 10.5521C16.6136 10.6321 16.5595 10.7009 16.4889 10.7494C16.4184 10.7979 16.3348 10.8239 16.2491 10.8237H16.252Z" fill="#00A9F0"/>
</svg>
