<svg width="19" height="22" viewBox="0 0 19 22" fill="none" xmlns="http://www.w3.org/2000/svg">
<path d="M9.50308 11.6309C9.13765 11.6323 8.78281 11.7537 8.4931 11.9764C8.20338 12.1992 7.99484 12.5109 7.89953 12.8636C7.80421 13.2164 7.8274 13.5907 7.96553 13.9291C8.10367 14.2674 8.34909 14.551 8.66408 14.7362V17.1151H10.3625V14.7362C10.6118 14.5888 10.8186 14.3794 10.9629 14.1284C11.1072 13.8774 11.1842 13.5933 11.1862 13.3038C11.1862 13.0832 11.1426 12.8649 11.0579 12.6612C10.9732 12.4576 10.849 12.2727 10.6926 12.1172C10.5362 11.9618 10.3506 11.8387 10.1464 11.7553C9.94226 11.6718 9.72362 11.6295 9.50308 11.6309Z" stroke="#00A9F0" stroke-linecap="round" stroke-linejoin="round"/>
<path d="M15.7899 7.78882H3.21005C1.98947 7.78882 1 8.77829 1 9.99887V18.7419C1 19.9625 1.98947 20.9519 3.21005 20.9519H15.7899C17.0105 20.9519 18 19.9625 18 18.7419V9.99887C18 8.77829 17.0105 7.78882 15.7899 7.78882Z" stroke="#00A9F0" stroke-linecap="round" stroke-linejoin="round"/>
<path d="M4.05371 7.78875V6.45351C4.05371 5.00715 4.62828 3.62003 5.65101 2.59729C6.67374 1.57456 8.06086 1 9.50722 1C10.9536 1 12.3407 1.57456 13.3634 2.59729C14.3862 3.62003 14.9607 5.00715 14.9607 6.45351V7.78875" stroke="#00A9F0" stroke-linecap="round" stroke-linejoin="round"/>
</svg>
