<svg width="16" height="16" viewBox="0 0 16 16" fill="none" xmlns="http://www.w3.org/2000/svg">
<path d="M11.9818 10.6059C11.8335 10.4571 11.6573 10.339 11.4632 10.2584C11.2692 10.1778 11.0611 10.1364 10.851 10.1364C10.6409 10.1364 10.4328 10.1778 10.2388 10.2584C10.0447 10.339 9.86849 10.4571 9.72017 10.6059L8.94855 11.3775C8.07975 10.8262 7.27481 10.1801 6.54851 9.45114C5.82113 8.72346 5.17518 7.9187 4.6221 7.0511L5.39373 6.27948C5.54257 6.13116 5.66066 5.95492 5.74123 5.76086C5.82181 5.56681 5.86329 5.35876 5.86329 5.14864C5.86329 4.93852 5.82181 4.73047 5.74123 4.53642C5.66066 4.34236 5.54257 4.16612 5.39373 4.01781L3.88773 2.51712C3.7415 2.36779 3.56675 2.24939 3.37386 2.16894C3.18097 2.08849 2.97387 2.04764 2.76487 2.04882C2.5544 2.04831 2.34589 2.08942 2.15136 2.16979C1.95683 2.25015 1.78012 2.3682 1.63138 2.51712L0.907644 3.23553C0.562684 3.60643 0.305226 4.04992 0.154196 4.5334C0.00316672 5.01688 -0.0375958 5.52806 0.0349054 6.02936C0.205196 8.02495 1.5143 10.425 3.53118 12.4472C5.54806 14.4694 7.9747 15.7732 9.97029 15.9647C10.1192 15.9727 10.2684 15.9727 10.4173 15.9647C10.8469 15.9828 11.2757 15.9149 11.6787 15.765C12.0817 15.6151 12.4507 15.3863 12.7641 15.092L13.4825 14.3683C13.6315 14.2195 13.7495 14.0428 13.8299 13.8483C13.9102 13.6538 13.9513 13.4453 13.9508 13.2348C13.952 13.0258 13.9112 12.8187 13.8307 12.6258C13.7503 12.4329 13.6319 12.2581 13.4825 12.1119L11.9818 10.6059ZM12.7322 13.6179L12.0085 14.3363C11.7409 14.5594 11.4285 14.7223 11.0924 14.8141C10.7564 14.9059 10.4046 14.9245 10.0608 14.8685C8.33124 14.7195 6.12811 13.4955 4.30813 11.6756C2.48815 9.85558 1.26419 7.66841 1.09922 5.93889C1.04183 5.59508 1.05969 5.2429 1.15156 4.90665C1.24343 4.5704 1.40713 4.25807 1.63138 3.9912L2.38172 3.26746C2.43145 3.21814 2.49042 3.17912 2.55525 3.15264C2.62009 3.12616 2.68952 3.11273 2.75955 3.11314C2.82959 3.11273 2.89901 3.12616 2.96385 3.15264C3.02869 3.17912 3.08766 3.21814 3.13738 3.26746L4.64339 4.78943C4.7425 4.88914 4.79814 5.02402 4.79814 5.16461C4.79814 5.30519 4.7425 5.44007 4.64339 5.53978L3.57907 6.60409C3.49579 6.68697 3.44227 6.79507 3.42687 6.91155C3.41147 7.02803 3.43505 7.14633 3.49393 7.248C4.13113 8.33278 4.9056 9.33083 5.79817 10.2174C6.68479 11.11 7.68283 11.8845 8.76761 12.5217C8.86928 12.5806 8.98759 12.6041 9.10406 12.5887C9.22054 12.5733 9.32865 12.5198 9.41152 12.4365L10.4758 11.3722C10.5755 11.2731 10.7104 11.2175 10.851 11.2175C10.9916 11.2175 11.1265 11.2731 11.2262 11.3722L12.7322 12.8782C12.7815 12.928 12.8205 12.9869 12.847 13.0518C12.8735 13.1166 12.8869 13.186 12.8865 13.2561C12.8832 13.392 12.828 13.5214 12.7322 13.6179ZM13.6581 2.33619C12.9186 1.59381 12.0394 1.00518 11.0712 0.604218C10.1031 0.20326 9.06516 -0.00208693 8.01727 1.59895e-05C7.87613 1.59895e-05 7.74078 0.0560824 7.64098 0.155881C7.54118 0.25568 7.48511 0.391037 7.48511 0.532174C7.48511 0.673311 7.54118 0.808667 7.64098 0.908466C7.74078 1.00826 7.87613 1.06433 8.01727 1.06433C8.93071 1.0643 9.83511 1.24516 10.6783 1.59648C11.5215 1.9478 12.2867 2.46262 12.9299 3.11123C13.5731 3.75985 14.0814 4.52941 14.4256 5.37551C14.7698 6.22162 14.943 7.12751 14.9353 8.04092C14.9353 8.18205 14.9914 8.31741 15.0912 8.41721C15.191 8.51701 15.3263 8.57308 15.4675 8.57308C15.6086 8.57308 15.744 8.51701 15.8438 8.41721C15.9436 8.31741 15.9996 8.18205 15.9996 8.04092C16.0098 6.98189 15.8079 5.93154 15.4058 4.95178C15.0036 3.97202 14.4094 3.08268 13.6581 2.33619Z" fill="#00A9F0"/>
<path d="M10.6308 5.38016C10.9328 5.68034 11.1718 6.0379 11.3335 6.43179C11.4953 6.82569 11.5766 7.24796 11.5728 7.67376C11.5728 7.8149 11.6288 7.95025 11.7286 8.05005C11.8284 8.14985 11.9638 8.20592 12.1049 8.20592C12.2461 8.20592 12.3814 8.14985 12.4812 8.05005C12.581 7.95025 12.6371 7.8149 12.6371 7.67376C12.6441 7.11022 12.5392 6.5509 12.3284 6.02823C12.1176 5.50555 11.8052 5.02994 11.4091 4.62896C11.0131 4.22798 10.5414 3.90963 10.0214 3.69236C9.50137 3.47509 8.94339 3.36324 8.37981 3.36328C8.23868 3.36328 8.10332 3.41935 8.00352 3.51915C7.90372 3.61895 7.84766 3.7543 7.84766 3.89544C7.84766 4.03658 7.90372 4.17193 8.00352 4.27173C8.10332 4.37153 8.23868 4.4276 8.37981 4.4276C8.7992 4.43076 9.21385 4.51651 9.60009 4.67995C9.98632 4.84339 10.3366 5.08133 10.6308 5.38016Z" fill="#00A9F0"/>
</svg>
