<svg width="24" height="25" viewBox="0 0 24 25" fill="none" xmlns="http://www.w3.org/2000/svg">
                        <path d="M18 6.5C18.5625 6.5 19.0391 6.69531 19.4297 7.08594C19.8203 7.47656 20.0156 7.95312 20.0156 8.51562V20.5156C20.0156 21.0469 19.8203 21.5078 19.4297 21.8984C19.0391 22.2891 18.5625 22.4844 18 22.4844H6C5.4375 22.4844 4.96094 22.2891 4.57031 21.8984C4.17969 21.5078 3.98438 21.0469 3.98438 20.5156V8.51562C3.98438 7.95312 4.17969 7.47656 4.57031 7.08594C4.96094 6.69531 5.4375 6.5 6 6.5H8.01562C8.01562 5.40625 8.40625 4.46875 9.1875 3.6875C9.96875 2.90625 10.9062 2.51562 12 2.51562C13.0938 2.51562 14.0312 2.90625 14.8125 3.6875C15.5938 4.46875 15.9844 5.40625 15.9844 6.5H18ZM9.98438 10.4844V8.51562H8.01562V10.4844C8.01562 10.7656 8.10938 11.0078 8.29688 11.2109C8.48438 11.4141 8.71875 11.5156 9 11.5156C9.28125 11.5156 9.51562 11.4141 9.70312 11.2109C9.89062 11.0078 9.98438 10.7656 9.98438 10.4844ZM12 4.48438C11.4375 4.48438 10.9609 4.67969 10.5703 5.07031C10.1797 5.46094 9.98438 5.9375 9.98438 6.5H14.0156C14.0156 5.9375 13.8203 5.46094 13.4297 5.07031C13.0391 4.67969 12.5625 4.48438 12 4.48438ZM15.9844 10.4844V8.51562H14.0156V10.4844C14.0156 10.7656 14.1094 11.0078 14.2969 11.2109C14.4844 11.4141 14.7188 11.5156 15 11.5156C15.2812 11.5156 15.5156 11.4141 15.7031 11.2109C15.8906 11.0078 15.9844 10.7656 15.9844 10.4844Z" fill="#ADB5BD"/>
                        </svg>