<svg width="24" height="25" viewBox="0 0 24 25" fill="none" xmlns="http://www.w3.org/2000/svg">
                        <path d="M18.9844 3.5C19.5469 3.5 20.0234 3.69531 20.4141 4.08594C20.8047 4.47656 21 4.95312 21 5.51562V19.4844C21 20.0469 20.8047 20.5234 20.4141 20.9141C20.0234 21.3047 19.5469 21.5 18.9844 21.5H5.01562C4.45312 21.5 3.97656 21.3047 3.58594 20.9141C3.19531 20.5234 3 20.0469 3 19.4844V5.51562C3 4.95312 3.19531 4.47656 3.58594 4.08594C3.97656 3.69531 4.45312 3.5 5.01562 3.5H18.9844ZM15.9844 13.4844C16.2656 13.4844 16.5078 13.3906 16.7109 13.2031C16.9141 13.0156 17.0156 12.7812 17.0156 12.5C17.0156 12.2188 16.9141 11.9844 16.7109 11.7969C16.5078 11.6094 16.2656 11.5156 15.9844 11.5156H12.9844V8.51562C12.9844 8.23438 12.8906 7.99219 12.7031 7.78906C12.5156 7.58594 12.2812 7.48438 12 7.48438C11.7188 7.48438 11.4844 7.58594 11.2969 7.78906C11.1094 7.99219 11.0156 8.23438 11.0156 8.51562V11.5156H8.01562C7.73438 11.5156 7.49219 11.6094 7.28906 11.7969C7.08594 11.9844 6.98438 12.2188 6.98438 12.5C6.98438 12.7812 7.08594 13.0156 7.28906 13.2031C7.49219 13.3906 7.73438 13.4844 8.01562 13.4844H11.0156V16.4844C11.0156 16.7656 11.1094 17.0078 11.2969 17.2109C11.4844 17.4141 11.7188 17.5156 12 17.5156C12.2812 17.5156 12.5156 17.4141 12.7031 17.2109C12.8906 17.0078 12.9844 16.7656 12.9844 16.4844V13.4844H15.9844Z" fill="#ADB5BD"/>
                        </svg>