 <svg width="12" height="14" viewBox="0 0 12 14" fill="none" xmlns="http://www.w3.org/2000/svg">
<path d="M2.43243 4.378C2.43243 3.47483 2.79122 2.60865 3.42985 1.97002C4.06849 1.33138 4.93467 0.972597 5.83784 0.972597C6.74101 0.972597 7.60718 1.33138 8.24582 1.97002C8.88446 2.60865 9.24324 3.47483 9.24324 4.378C9.24324 4.50703 9.2945 4.63077 9.38573 4.722C9.47696 4.81323 9.6007 4.86449 9.72973 4.86449C9.85875 4.86449 9.98249 4.81323 10.0737 4.722C10.165 4.63077 10.2162 4.50703 10.2162 4.378C10.2162 3.63131 10.0251 2.89704 9.66129 2.24498C9.29746 1.59292 8.77291 1.04475 8.13751 0.652562C7.5021 0.260374 6.77695 0.0372032 6.03099 0.00426309C5.28502 -0.028677 4.54302 0.129708 3.87552 0.464363C3.20802 0.799018 2.6372 1.29882 2.21731 1.91627C1.79742 2.53372 1.54241 3.2483 1.47653 3.99208C1.41065 4.73586 1.53609 5.48413 1.84091 6.16577C2.14574 6.84741 2.61982 7.43977 3.21811 7.88654C3.73114 8.26978 4.322 8.53582 4.94903 8.66589C5.03613 8.86126 5.18518 9.02248 5.37313 9.12461C5.56108 9.22675 5.77744 9.26409 5.98875 9.23088C6.20007 9.19767 6.39454 9.09575 6.5421 8.94088C6.68965 8.78602 6.78206 8.58685 6.80503 8.37418C6.828 8.16151 6.78025 7.9472 6.66916 7.76441C6.55807 7.58161 6.38984 7.44052 6.19049 7.36295C5.99114 7.28539 5.77179 7.27568 5.56637 7.33533C5.36095 7.39498 5.18091 7.52065 5.05411 7.69292C4.30764 7.51639 3.64263 7.09301 3.16681 6.49137C2.69099 5.88972 2.43222 5.14506 2.43243 4.378ZM2.91892 4.378C2.91911 3.84101 3.06743 3.31449 3.34755 2.85635C3.62768 2.39822 4.02876 2.02624 4.50665 1.78134C4.98454 1.53645 5.52073 1.42813 6.05622 1.4683C6.5917 1.50848 7.10572 1.69559 7.54173 2.00905C7.97773 2.32251 8.31881 2.75017 8.52744 3.24498C8.73608 3.73978 8.80417 4.28254 8.72423 4.81355C8.6443 5.34455 8.41943 5.84322 8.07438 6.25467C7.72932 6.66612 7.27745 6.97441 6.76849 7.14562C6.50674 6.92897 6.17761 6.81043 5.83784 6.81043C5.48416 6.81043 5.16016 6.93643 4.90719 7.14562C4.32766 6.95068 3.82399 6.57866 3.46724 6.08209C3.1105 5.58551 2.9187 4.98944 2.91892 4.378ZM5.83784 9.72935C6.07139 9.72948 6.30156 9.67355 6.50901 9.56627C6.71646 9.45898 6.89514 9.30348 7.03003 9.11283C7.16492 8.92217 7.25208 8.70192 7.2842 8.47059C7.31631 8.23926 7.29244 8.0036 7.21459 7.78341H9.97297C10.4246 7.78341 10.8576 7.9628 11.177 8.28212C11.4963 8.60144 11.6757 9.03453 11.6757 9.48611V9.72935C11.6757 10.8935 10.9348 11.8782 9.88297 12.5476C8.82535 13.2209 7.39362 13.6212 5.83784 13.6212C4.28205 13.6212 2.85081 13.2209 1.7927 12.5476C0.740919 11.8782 0 10.8935 0 9.72935V9.48611C0 9.03453 0.179391 8.60144 0.49871 8.28212C0.818029 7.9628 1.25112 7.78341 1.7027 7.78341H2.36384C2.98603 8.4187 3.77044 8.87132 4.63184 9.09206C4.89454 9.47687 5.33724 9.72935 5.83784 9.72935Z" fill="#00A9F0"/>
</svg>
