<svg width="22" height="22" viewBox="0 0 22 22" fill="none" xmlns="http://www.w3.org/2000/svg">
<path d="M3.65234 16.5C3.42318 16.5 3.21549 16.4069 3.0293 16.2207C2.8431 16.0345 2.75 15.8197 2.75 15.5762C2.75 15.3327 2.8431 15.1178 3.0293 14.9316C3.21549 14.7454 3.42318 14.6523 3.65234 14.6523H13.75C14.0078 14.6523 14.2227 14.7454 14.3945 14.9316C14.5664 15.1178 14.6523 15.3327 14.6523 15.5762C14.6523 15.8197 14.5664 16.0345 14.3945 16.2207C14.2227 16.4069 14.0078 16.5 13.75 16.5H3.65234ZM3.65234 11.9023C3.42318 11.9023 3.21549 11.8164 3.0293 11.6445C2.8431 11.4727 2.75 11.2578 2.75 11C2.75 10.7422 2.8431 10.5273 3.0293 10.3555C3.21549 10.1836 3.42318 10.0977 3.65234 10.0977H11C11.2578 10.0977 11.4727 10.1836 11.6445 10.3555C11.8164 10.5273 11.9023 10.7422 11.9023 11C11.9023 11.2578 11.8164 11.4727 11.6445 11.6445C11.4727 11.8164 11.2578 11.9023 11 11.9023H3.65234ZM2.75 6.40234C2.75 6.17318 2.8431 5.9655 3.0293 5.7793C3.21549 5.5931 3.42318 5.5 3.65234 5.5H13.75C14.0078 5.5 14.2227 5.5931 14.3945 5.7793C14.5664 5.9655 14.6523 6.18034 14.6523 6.42383C14.6523 6.66732 14.5664 6.88216 14.3945 7.06836C14.2227 7.25456 14.0078 7.34766 13.75 7.34766H3.65234C3.42318 7.34766 3.21549 7.25456 3.0293 7.06836C2.8431 6.88216 2.75 6.66016 2.75 6.40234ZM18.6055 13.6211C18.7773 13.8216 18.8633 14.0436 18.8633 14.2871C18.8633 14.5306 18.7773 14.7454 18.6055 14.9316C18.4336 15.1178 18.2188 15.2109 17.9609 15.2109C17.7031 15.2109 17.4883 15.125 17.3164 14.9531L14.0078 11.6445C13.8359 11.4727 13.75 11.2578 13.75 11C13.75 10.7422 13.8359 10.5273 14.0078 10.3555L17.3164 7.04688C17.4883 6.875 17.7031 6.78906 17.9609 6.78906C18.2188 6.78906 18.4336 6.88216 18.6055 7.06836C18.7773 7.25456 18.8633 7.4694 18.8633 7.71289C18.8633 7.95638 18.7773 8.17839 18.6055 8.37891L15.9844 11L18.6055 13.6211Z" fill="#212529" fill-opacity="0.75"/>
</svg>
