 <svg width="24" height="25" viewBox="0 0 24 25" fill="none" xmlns="http://www.w3.org/2000/svg">
                        <path d="M12 2.51562C13.8125 2.51562 15.4844 2.96094 17.0156 3.85156C18.5469 4.74219 19.7578 5.95312 20.6484 7.48438C21.5391 9.01562 21.9844 10.6875 21.9844 12.5C21.9844 14.3125 21.5391 15.9844 20.6484 17.5156C19.7578 19.0469 18.5469 20.2578 17.0156 21.1484C15.4844 22.0391 13.8125 22.4844 12 22.4844C10.1875 22.4844 8.51562 22.0391 6.98438 21.1484C5.45312 20.2578 4.24219 19.0469 3.35156 17.5156C2.46094 15.9844 2.01562 14.3125 2.01562 12.5C2.01562 10.6875 2.46094 9.01562 3.35156 7.48438C4.24219 5.95312 5.45312 4.74219 6.98438 3.85156C8.51562 2.96094 10.1875 2.51562 12 2.51562ZM13.4062 18.5938C14.3438 18.4062 15.0781 18.0625 15.6094 17.5625C16.2344 17 16.5469 16.2969 16.5469 15.4531C16.5469 14.2969 16.0938 13.3906 15.1875 12.7344C14.5625 12.2656 13.625 11.8594 12.375 11.5156C11.375 11.2656 10.6797 10.9922 10.2891 10.6953C9.89844 10.3984 9.70312 10.0234 9.70312 9.57031C9.70312 9.11719 9.91406 8.73438 10.3359 8.42188C10.7578 8.10938 11.3438 7.95312 12.0938 7.95312C13.25 7.95312 13.9531 8.375 14.2031 9.21875C14.2656 9.40625 14.3672 9.55469 14.5078 9.66406C14.6484 9.77344 14.8125 9.82812 15 9.82812H15.2344C15.5469 9.82812 15.7891 9.71094 15.9609 9.47656C16.1328 9.24219 16.1562 8.98438 16.0312 8.70312C15.8438 8.17188 15.5312 7.70312 15.0938 7.29688C14.6562 6.89062 14.0938 6.60938 13.4062 6.45312V5.84375C13.4062 5.46875 13.2812 5.14844 13.0312 4.88281C12.7812 4.61719 12.4688 4.48438 12.0938 4.48438C11.7188 4.48438 11.3984 4.61719 11.1328 4.88281C10.8672 5.14844 10.7344 5.46875 10.7344 5.84375V6.45312C9.82812 6.64062 9.08594 7.01562 8.50781 7.57812C7.92969 8.14062 7.64062 8.82812 7.64062 9.64062C7.64062 10.6094 8.03125 11.4062 8.8125 12.0312C9.46875 12.5625 10.4688 12.9844 11.8125 13.2969C12.8438 13.5469 13.5625 13.875 13.9688 14.2812C14.3125 14.5938 14.4844 14.9844 14.4844 15.4531C14.4844 15.8594 14.3281 16.2031 14.0156 16.4844C13.6094 16.8594 12.9688 17.0469 12.0938 17.0469C10.75 17.0469 9.90625 16.625 9.5625 15.7812C9.40625 15.375 9.14062 15.1719 8.76562 15.1719H8.53125C8.21875 15.1719 7.97656 15.2969 7.80469 15.5469C7.63281 15.7969 7.60938 16.0625 7.73438 16.3438C7.98438 16.9375 8.375 17.4219 8.90625 17.7969C9.4375 18.1719 10.0469 18.4219 10.7344 18.5469V19.1562C10.7344 19.5312 10.8672 19.8516 11.1328 20.1172C11.3984 20.3828 11.7031 20.5156 12.0469 20.5156H12.0938C12.4375 20.5156 12.7422 20.3828 13.0078 20.1172C13.2734 19.8516 13.4062 19.5312 13.4062 19.1562V18.5938Z" fill="#ADB5BD"/>
                        </svg>