<svg width="17" height="17" viewBox="0 0 17 17" fill="none" xmlns="http://www.w3.org/2000/svg">
<path d="M0.361062 8.42599C0.360665 9.85906 0.735113 11.2583 1.44712 12.4917L0.292969 16.7057L4.60546 15.5749C5.79824 16.2243 7.13466 16.5645 8.49273 16.5646H8.4963C12.9796 16.5646 16.629 12.9164 16.6309 8.4324C16.6318 6.25956 15.7864 4.21637 14.2504 2.67918C12.7147 1.14212 10.6722 0.295181 8.49597 0.294189C4.01219 0.294189 0.362979 3.94214 0.361128 8.42599" fill="url(#paint0_linear_780_1006)"/>
<path d="M0.0707377 8.42348C0.070275 9.90811 0.458143 11.3574 1.19553 12.635L0 17L4.46712 15.8287C5.69796 16.4998 7.08376 16.8536 8.49389 16.8542H8.49752C13.1416 16.8542 16.9222 13.0748 16.9242 8.43022C16.925 6.17931 16.0491 4.06266 14.4583 2.4704C12.8672 0.878338 10.7517 0.000925541 8.49752 0C3.85263 0 0.0725888 3.77885 0.0707377 8.42348ZM2.73107 12.4149L2.56428 12.1502C1.86311 11.0353 1.49303 9.74693 1.49356 8.42401C1.49501 4.56351 4.63683 1.42269 8.50016 1.42269C10.3711 1.42348 12.1293 2.15281 13.4518 3.47607C14.7742 4.79946 15.5019 6.55865 15.5014 8.42969C15.4997 12.2902 12.3578 15.4314 8.49752 15.4314H8.49474C7.23779 15.4307 6.00504 15.0932 4.92996 14.4553L4.67411 14.3036L2.02323 14.9986L2.73107 12.4149Z" fill="url(#paint1_linear_780_1006)"/>
<path d="M6.39126 4.90191C6.23352 4.55132 6.06752 4.54425 5.91751 4.5381C5.79468 4.53281 5.65426 4.53321 5.51398 4.53321C5.37356 4.53321 5.14541 4.58603 4.95257 4.79659C4.75953 5.00735 4.21558 5.51666 4.21558 6.55254C4.21558 7.58842 4.97009 8.58959 5.07527 8.73021C5.18058 8.87056 6.53187 11.0644 8.67199 11.9083C10.4506 12.6097 10.8126 12.4702 11.1986 12.435C11.5847 12.4 12.4444 11.9258 12.6197 11.4342C12.7953 10.9426 12.7953 10.5212 12.7426 10.4331C12.69 10.3454 12.5496 10.2927 12.339 10.1875C12.1285 10.0822 11.0933 9.57278 10.9003 9.5025C10.7073 9.43229 10.5669 9.39726 10.4265 9.60808C10.2861 9.81858 9.88286 10.2927 9.75996 10.4331C9.63719 10.5739 9.5143 10.5914 9.3038 10.4861C9.09311 10.3804 8.41502 10.1584 7.61052 9.44115C6.9846 8.88305 6.56202 8.19386 6.43919 7.98303C6.31635 7.77254 6.42603 7.65843 6.53161 7.55351C6.62621 7.45917 6.74224 7.30765 6.84762 7.18475C6.9526 7.06179 6.98764 6.97406 7.05785 6.83364C7.12812 6.69309 7.09295 6.57013 7.04039 6.46481C6.98764 6.3595 6.57848 5.3182 6.39126 4.90191Z" fill="white"/>
<defs>
<linearGradient id="paint0_linear_780_1006" x1="817.192" y1="1641.44" x2="817.192" y2="0.294189" gradientUnits="userSpaceOnUse">
<stop stop-color="#1FAF38"/>
<stop offset="1" stop-color="#60D669"/>
</linearGradient>
<linearGradient id="paint1_linear_780_1006" x1="846.209" y1="1700" x2="846.209" y2="0" gradientUnits="userSpaceOnUse">
<stop stop-color="#F9F9F9"/>
<stop offset="1" stop-color="white"/>
</linearGradient>
</defs>
</svg>
