<svg width="16" height="16" viewBox="0 0 12 12" fill="none" xmlns="http://www.w3.org/2000/svg">
<path d="M4.65723 2H7.15723C7.15723 1.66848 7.02553 1.35054 6.79111 1.11612C6.55669 0.881696 6.23875 0.75 5.90723 0.75C5.57571 0.75 5.25776 0.881696 5.02334 1.11612C4.78892 1.35054 4.65723 1.66848 4.65723 2ZM3.90723 2C3.90723 1.46957 4.11794 0.960859 4.49301 0.585786C4.86809 0.210714 5.37679 0 5.90723 0C6.43766 0 6.94637 0.210714 7.32144 0.585786C7.69651 0.960859 7.90723 1.46957 7.90723 2H11.0322C11.1317 2 11.2271 2.03951 11.2974 2.10983C11.3677 2.18016 11.4072 2.27554 11.4072 2.375C11.4072 2.47446 11.3677 2.56984 11.2974 2.64017C11.2271 2.71049 11.1317 2.75 11.0322 2.75H10.3772L9.76873 10.0515C9.72446 10.5827 9.48219 11.0778 9.08997 11.4387C8.69776 11.7996 8.18423 12 7.65123 12H4.16323C3.63022 12 3.1167 11.7996 2.72448 11.4387C2.33226 11.0778 2.09 10.5827 2.04573 10.0515L1.43723 2.75H0.782227C0.68277 2.75 0.587388 2.71049 0.517061 2.64017C0.446735 2.56984 0.407227 2.47446 0.407227 2.375C0.407227 2.27554 0.446735 2.18016 0.517061 2.10983C0.587388 2.03951 0.68277 2 0.782227 2H3.90723ZM2.79323 9.989C2.82182 10.3327 2.97854 10.6531 3.2323 10.8867C3.48606 11.1203 3.81833 11.2499 4.16323 11.25H7.65123C7.99612 11.2499 8.32839 11.1203 8.58215 10.8867C8.83591 10.6531 8.99263 10.3327 9.02123 9.989L9.62523 2.75H2.18973L2.79323 9.989ZM4.78223 4.5C4.88168 4.5 4.97707 4.53951 5.04739 4.60984C5.11772 4.68016 5.15723 4.77554 5.15723 4.875V9.125C5.15723 9.22446 5.11772 9.31984 5.04739 9.39017C4.97707 9.46049 4.88168 9.5 4.78223 9.5C4.68277 9.5 4.58739 9.46049 4.51706 9.39017C4.44674 9.31984 4.40723 9.22446 4.40723 9.125V4.875C4.40723 4.77554 4.44674 4.68016 4.51706 4.60984C4.58739 4.53951 4.68277 4.5 4.78223 4.5ZM7.40723 4.875C7.40723 4.77554 7.36772 4.68016 7.29739 4.60984C7.22707 4.53951 7.13168 4.5 7.03223 4.5C6.93277 4.5 6.83739 4.53951 6.76706 4.60984C6.69674 4.68016 6.65723 4.77554 6.65723 4.875V9.125C6.65723 9.22446 6.69674 9.31984 6.76706 9.39017C6.83739 9.46049 6.93277 9.5 7.03223 9.5C7.13168 9.5 7.22707 9.46049 7.29739 9.39017C7.36772 9.31984 7.40723 9.22446 7.40723 9.125V4.875Z" fill="black"/>
</svg>
