<svg width="17" height="17" viewBox="0 0 12 12" fill="none" xmlns="http://www.w3.org/2000/svg">
<path d="M1.38575 10.7953C-1.01136 8.55892 0.224186 6.00667 1.21249 4.96951L5.02029 0.972246C5.28002 0.677748 5.59843 0.439494 5.95557 0.272413C6.31271 0.105333 6.70088 0.0130276 7.09577 0.00128202C7.49065 -0.0104635 7.88372 0.0586036 8.25037 0.204155C8.61701 0.349707 8.94931 0.568607 9.22645 0.847136C9.52414 1.10408 9.76497 1.41909 9.93385 1.77241C10.1027 2.12573 10.196 2.50975 10.2079 2.9004C10.2198 3.29106 10.15 3.67993 10.0028 4.04265C9.85572 4.40537 9.63446 4.73412 9.35292 5.0083L5.54259 9.00619C5.3855 9.18098 5.19396 9.32217 4.97972 9.42109C4.76549 9.52 4.53308 9.57456 4.29676 9.58142C4.06045 9.58827 3.82521 9.54727 3.60548 9.46094C3.38576 9.37461 3.18619 9.24477 3.01902 9.07938C2.84234 8.92397 2.69962 8.73448 2.59964 8.52254C2.49965 8.31059 2.4445 8.08067 2.43757 7.84688C2.43064 7.61309 2.47208 7.38037 2.55935 7.163C2.64661 6.94563 2.77786 6.74819 2.94504 6.58281L6.75537 2.58491C6.86437 2.4745 7.01284 2.41085 7.16881 2.40767C7.32478 2.4045 7.47577 2.46205 7.58927 2.56794C7.70277 2.67382 7.76969 2.81957 7.77563 2.9738C7.78156 3.12802 7.72604 3.27838 7.62101 3.3925L3.81068 7.39352C3.75003 7.44583 3.70186 7.51078 3.66963 7.5837C3.6374 7.65663 3.6219 7.73572 3.62426 7.81528C3.62662 7.89484 3.64677 7.97289 3.68327 8.04382C3.71977 8.11475 3.7717 8.1768 3.83534 8.2255C3.88881 8.2857 3.95512 8.33339 4.0295 8.36514C4.10387 8.39689 4.18444 8.4119 4.2654 8.40909C4.34635 8.40628 4.42566 8.38571 4.4976 8.34888C4.56954 8.31204 4.63231 8.25986 4.68137 8.1961L8.48664 4.20321C8.65901 4.04069 8.79488 3.84411 8.88543 3.62624C8.97597 3.40836 9.01915 3.17408 9.01218 2.93861C9.0052 2.70315 8.94822 2.47177 8.84493 2.25952C8.74164 2.04727 8.59436 1.85889 8.41266 1.70664C8.24814 1.53594 8.04912 1.40144 7.82856 1.31188C7.608 1.22233 7.37085 1.17974 7.13254 1.18688C6.89424 1.19402 6.66013 1.25073 6.44545 1.35333C6.23077 1.45592 6.04035 1.6021 5.88657 1.78233L2.07877 5.77772C1.87263 5.99729 0.113531 7.9903 2.20523 9.93888C4.29693 11.8875 6.20209 10.0327 6.41265 9.81377L10.2217 5.81776C10.33 5.70411 10.4794 5.63766 10.6372 5.63303C10.795 5.6284 10.9481 5.68596 11.063 5.79305C11.1779 5.90014 11.2451 6.04799 11.2497 6.20408C11.2544 6.36017 11.1962 6.5117 11.088 6.62534L7.27766 10.6232C6.28492 11.6617 3.78349 13.0316 1.38575 10.7953Z" fill="#00A9F0"/>
</svg>
