<svg width="19" height="20" viewBox="0 0 12 11" fill="none" xmlns="http://www.w3.org/2000/svg">
<path fill-rule="evenodd" clip-rule="evenodd" d="M11.4124 1.81294C11.4659 1.89554 11.4897 1.99438 11.4799 2.09278C11.4701 2.19118 11.4271 2.28311 11.3584 2.35305L6.18391 7.61775C6.13097 7.67158 6.06493 7.71013 5.99253 7.72944L3.83729 8.30219C3.76605 8.32109 3.69118 8.32071 3.62013 8.30108C3.54907 8.28145 3.4843 8.24325 3.43224 8.19028C3.38018 8.1373 3.34264 8.07139 3.32335 7.99909C3.30405 7.92679 3.30368 7.85062 3.32226 7.77812L3.88513 5.58564C3.90196 5.51998 3.93292 5.45895 3.97575 5.40694L9.16939 0.125627C9.24854 0.0451839 9.35584 0 9.46771 0C9.57959 0 9.68688 0.0451839 9.76604 0.125627L11.3584 1.74536C11.3781 1.76646 11.3961 1.78905 11.4124 1.81294ZM10.4629 2.04892L9.46771 1.03687L4.67316 5.91554L4.32136 7.28613L5.66832 6.92816L10.4629 2.04892Z" fill="black"/>
<path d="M10.3916 8.53795C10.5455 7.19998 10.5946 5.85168 10.5385 4.5058C10.5372 4.47407 10.5424 4.44242 10.5537 4.41284C10.565 4.38326 10.5823 4.3564 10.6044 4.33397L11.1582 3.77039C11.1734 3.7549 11.1926 3.74419 11.2136 3.73954C11.2345 3.73489 11.2564 3.73651 11.2765 3.74419C11.2966 3.75187 11.3141 3.7653 11.3268 3.78285C11.3396 3.8004 11.3471 3.82133 11.3485 3.84312C11.4525 5.44181 11.4129 7.04681 11.2303 8.63818C11.0975 9.79628 10.1834 10.7041 9.05029 10.833C7.08323 11.0545 5.09816 11.0545 3.1311 10.833C1.9986 10.7041 1.08393 9.79628 0.951094 8.63818C0.718125 6.608 0.718125 4.55713 0.951094 2.52695C1.08393 1.36885 1.99804 0.461043 3.1311 0.332175C4.6241 0.164387 6.12824 0.12358 7.6279 0.210179C7.64937 0.211747 7.66994 0.219541 7.68718 0.232638C7.70442 0.245734 7.71762 0.263585 7.7252 0.284076C7.73278 0.304566 7.73443 0.326838 7.72996 0.348254C7.72548 0.36967 7.71507 0.389333 7.69995 0.404914L7.14102 0.97308C7.11917 0.995329 7.09305 1.01276 7.06429 1.02429C7.03552 1.03582 7.00474 1.0412 6.97384 1.04009C5.72244 0.996477 4.46957 1.04529 3.2251 1.18614C2.86145 1.2271 2.52199 1.3916 2.26155 1.65308C2.00111 1.91455 1.8349 2.25773 1.78978 2.62718C1.56398 4.59074 1.56398 6.57439 1.78978 8.53795C1.8349 8.90739 2.00111 9.25057 2.26155 9.51205C2.52199 9.77352 2.86145 9.93803 3.2251 9.97898C5.11355 10.1938 7.06784 10.1938 8.95685 9.97898C9.3205 9.93803 9.65996 9.77352 9.9204 9.51205C10.1808 9.25057 10.3465 8.90739 10.3916 8.53795Z" fill="black"/>
</svg>
