<svg width="18" height="21" viewBox="0 0 13 11" fill="none" xmlns="http://www.w3.org/2000/svg">
<path d="M3.75098 3.75L5.36901 4.70696C6.31223 5.26464 6.68896 5.26464 7.63272 4.70696L9.25076 3.75" stroke="black" stroke-linecap="round" stroke-linejoin="round"/>
<path d="M1.00923 6.48636C1.04498 8.17204 1.06313 9.01516 1.68516 9.63939C2.30718 10.2642 3.17285 10.2856 4.90473 10.3291C5.97169 10.3566 7.02875 10.3566 8.0957 10.3291C9.82758 10.2856 10.6932 10.2642 11.3153 9.63939C11.9373 9.01516 11.9555 8.17204 11.9917 6.48636C12.0027 5.94408 12.0027 5.4051 11.9917 4.86283C11.9555 3.17714 11.9373 2.33403 11.3153 1.7098C10.6932 1.08502 9.82758 1.06358 8.0957 1.02013C7.03221 0.993291 5.96822 0.993291 4.90473 1.02013C3.17285 1.06358 2.30718 1.08502 1.68516 1.7098C1.06313 2.33403 1.04498 3.17714 1.00868 4.86283C0.997106 5.40394 0.997655 5.94524 1.00923 6.48636Z" stroke="black" stroke-linecap="round" stroke-linejoin="round"/>
</svg>
