<svg width="20" height="18" viewBox="0 0 20 18" fill="none" xmlns="http://www.w3.org/2000/svg">
<path d="M19 16.5C19 14.41 17.33 11.432 15 10.773M13 16.5C13 13.849 10.314 10.5 7 10.5C3.686 10.5 1 13.849 1 16.5M13 7C13.7956 7 14.5587 6.68393 15.1213 6.12132C15.6839 5.55871 16 4.79565 16 4C16 3.20435 15.6839 2.44129 15.1213 1.87868C14.5587 1.31607 13.7956 1 13 1M10 4C10 4.79565 9.68393 5.55871 9.12132 6.12132C8.55871 6.68393 7.79565 7 7 7C6.20435 7 5.44129 6.68393 4.87868 6.12132C4.31607 5.55871 4 4.79565 4 4C4 3.20435 4.31607 2.44129 4.87868 1.87868C5.44129 1.31607 6.20435 1 7 1C7.79565 1 8.55871 1.31607 9.12132 1.87868C9.68393 2.44129 10 3.20435 10 4Z" stroke="black" stroke-width="1.5" stroke-linecap="round" stroke-linejoin="round"/>
</svg>
