<svg width="16" height="17" viewBox="0 0 16 17" fill="none" xmlns="http://www.w3.org/2000/svg">
<path fill-rule="evenodd" clip-rule="evenodd" d="M3.75 4.25C3.75 3.69188 3.85993 3.13923 4.07351 2.6236C4.28709 2.10796 4.60015 1.63945 4.9948 1.2448C5.38944 0.850147 5.85796 0.537094 6.3736 0.323512C6.88923 0.109929 7.44188 0 8 0C8.55812 0 9.11077 0.109929 9.6264 0.323512C10.142 0.537094 10.6106 0.850147 11.0052 1.2448C11.3999 1.63945 11.7129 2.10796 11.9265 2.6236C12.1401 3.13923 12.25 3.69188 12.25 4.25C12.25 5.37717 11.8022 6.45817 11.0052 7.2552C10.2082 8.05223 9.12717 8.5 8 8.5C6.87283 8.5 5.79183 8.05223 4.9948 7.2552C4.19777 6.45817 3.75 5.37717 3.75 4.25ZM8 1.5C7.27065 1.5 6.57118 1.78973 6.05546 2.30546C5.53973 2.82118 5.25 3.52065 5.25 4.25C5.25 4.97935 5.53973 5.67882 6.05546 6.19454C6.57118 6.71027 7.27065 7 8 7C8.72935 7 9.42882 6.71027 9.94454 6.19454C10.4603 5.67882 10.75 4.97935 10.75 4.25C10.75 3.52065 10.4603 2.82118 9.94454 2.30546C9.42882 1.78973 8.72935 1.5 8 1.5ZM4 11.5C3.40326 11.5 2.83097 11.7371 2.40901 12.159C1.98705 12.581 1.75 13.1533 1.75 13.75V14.938C1.75 14.956 1.763 14.972 1.781 14.975C5.9 15.647 10.101 15.647 14.219 14.975C14.2275 14.9731 14.2351 14.9684 14.2407 14.9617C14.2463 14.955 14.2496 14.9467 14.25 14.938V13.75C14.25 13.1533 14.0129 12.581 13.591 12.159C13.169 11.7371 12.5967 11.5 12 11.5H11.66C11.6332 11.5005 11.6067 11.5045 11.581 11.512L10.716 11.795C8.95118 12.3713 7.04882 12.3713 5.284 11.795L4.418 11.512C4.39296 11.5047 4.36708 11.5006 4.341 11.5H4ZM0.25 13.75C0.25 12.7554 0.645088 11.8016 1.34835 11.0983C2.05161 10.3951 3.00544 10 4 10H4.34C4.52667 10.0007 4.708 10.0293 4.884 10.086L5.75 10.369C7.21203 10.8463 8.78797 10.8463 10.25 10.369L11.116 10.086C11.291 10.029 11.475 10 11.659 10H12C12.9946 10 13.9484 10.3951 14.6517 11.0983C15.3549 11.8016 15.75 12.7554 15.75 13.75V14.938C15.75 15.692 15.204 16.334 14.46 16.455C10.1816 17.1534 5.81836 17.1534 1.54 16.455C1.18018 16.3958 0.853047 16.2108 0.616821 15.9331C0.380596 15.6553 0.250609 15.3027 0.25 14.938V13.75Z" fill="white"/>
</svg>
