<svg width="13" height="10" viewBox="0 0 13 10" fill="none" xmlns="http://www.w3.org/2000/svg">
<path d="M0 8.89213V8.44869C0 8.12924 0.0892228 7.84285 0.267668 7.58953C0.446114 7.3362 0.680475 7.13733 0.970753 6.99292C1.57951 6.68709 2.21306 6.44495 2.87142 6.2665C3.53026 6.08806 4.20198 5.99883 4.88659 5.99883C5.01933 5.99883 5.12508 6.05378 5.20385 6.16366C5.28262 6.27355 5.30547 6.39948 5.27241 6.54146C5.22768 6.72185 5.19631 6.90224 5.17832 7.08263C5.16082 7.26302 5.15207 7.44487 5.15207 7.62818C5.15207 7.85914 5.16957 8.08499 5.20458 8.30574C5.24056 8.52649 5.28797 8.74821 5.3468 8.9709C5.39737 9.14011 5.37646 9.29545 5.28408 9.43695C5.19169 9.57844 5.06114 9.64943 4.89242 9.64991H0.757056C0.543116 9.64991 0.363455 9.57698 0.218073 9.43111C0.072691 9.28573 0 9.10607 0 8.89213ZM9.93071 8.52746C10.2944 8.52746 10.6049 8.39861 10.8621 8.14091C11.1198 7.88321 11.2486 7.57251 11.2486 7.20881C11.2486 6.84511 11.1198 6.53441 10.8621 6.27671C10.6044 6.01901 10.2939 5.89016 9.93071 5.89016C9.5675 5.89016 9.2568 6.01901 8.99861 6.27671C8.74043 6.53441 8.61158 6.84511 8.61206 7.20881C8.61255 7.57251 8.7414 7.88321 8.99861 8.14091C9.25631 8.39861 9.56701 8.52746 9.93071 8.52746ZM5.10539 4.37532C4.49955 4.37532 3.98342 4.16235 3.557 3.73642C3.13058 3.30951 2.91737 2.79338 2.91737 2.18802C2.91737 1.58267 3.13058 1.06654 3.557 0.639633C3.98342 0.212725 4.49955 -0.000485398 5.10539 8.2974e-07C5.71123 0.000487057 6.22736 0.213698 6.65378 0.639633C7.0802 1.06557 7.29341 1.5817 7.29341 2.18802C7.29341 2.79435 7.0802 3.31048 6.65378 3.73642C6.22736 4.16235 5.71123 4.37556 5.10539 4.37605M9.59667 9.73962L9.52884 9.15834C9.32706 9.11652 9.1367 9.04578 8.95777 8.9461C8.77884 8.84642 8.61765 8.72001 8.47422 8.56684L7.91773 8.80096C7.84382 8.83062 7.77527 8.83159 7.71206 8.80388C7.64885 8.77616 7.59803 8.73265 7.55962 8.67333L7.51222 8.58581C7.4738 8.52454 7.4597 8.4555 7.46991 8.37867C7.48012 8.30185 7.51465 8.24156 7.57348 8.1978L8.04536 7.85136C7.96465 7.64374 7.92429 7.4298 7.92429 7.20954C7.92429 6.98928 7.96465 6.77485 8.04536 6.56626L7.58807 6.19211C7.52923 6.14835 7.49228 6.09097 7.47721 6.01998C7.46262 5.94948 7.47429 5.88335 7.51222 5.8216L7.564 5.73043C7.60241 5.67209 7.65468 5.62857 7.72081 5.59988C7.78693 5.5712 7.85719 5.57217 7.93159 5.6028L8.47422 5.83692C8.60793 5.68376 8.76668 5.55977 8.95048 5.46496C9.13427 5.37014 9.3273 5.30158 9.52957 5.25928L9.59667 4.67435C9.60494 4.59753 9.63776 4.53553 9.69513 4.48837C9.75251 4.4412 9.81961 4.41762 9.89643 4.41762H9.99198C10.0688 4.41762 10.1359 4.44193 10.1933 4.49055C10.2506 4.53918 10.2837 4.6019 10.2925 4.67873L10.3457 5.25928C10.5475 5.30158 10.7403 5.37087 10.9241 5.46714C11.1079 5.56342 11.2666 5.68959 11.4003 5.84567L11.9349 5.61155C12.0113 5.57898 12.0818 5.57654 12.1465 5.60426C12.2111 5.63246 12.2627 5.67744 12.3011 5.73919L12.3623 5.82598C12.4007 5.88773 12.4124 5.95459 12.3973 6.02655C12.3828 6.09851 12.3458 6.15661 12.2865 6.20086L11.8292 6.57501C11.9099 6.77728 11.9503 6.99001 11.9503 7.21319C11.9503 7.43636 11.9099 7.64909 11.8292 7.85136L12.3011 8.1978C12.3594 8.24156 12.3939 8.30112 12.4046 8.37649C12.4144 8.45185 12.4003 8.52041 12.3623 8.58216L12.3106 8.67333C12.2721 8.73216 12.2221 8.77568 12.1603 8.80388C12.0986 8.83208 12.0307 8.83111 11.9568 8.80096L11.4003 8.56684C11.2574 8.72001 11.0962 8.84642 10.9168 8.9461C10.7374 9.04578 10.547 9.11652 10.3457 9.15834L10.2925 9.74327C10.2837 9.8201 10.2506 9.88209 10.1933 9.92925C10.1359 9.97642 10.0688 10 9.99198 10H9.89716C9.82034 10 9.75299 9.97569 9.69513 9.92707C9.63727 9.87844 9.60445 9.81596 9.59667 9.73962Z" fill="black"/>
</svg>
