<svg width="16" height="15" viewBox="0 0 16 15" fill="none" xmlns="http://www.w3.org/2000/svg">
<path fill-rule="evenodd" clip-rule="evenodd" d="M1.22786 10.1648C-0.749854 5.31114 2.82111 0 8.06188 0H8.34428C10.2266 0.000466448 12.0317 0.748433 13.3628 2.07946C14.6938 3.41048 15.4418 5.2156 15.4422 7.09795C15.4425 8.13573 15.2382 9.16338 14.8412 10.1222C14.4442 11.081 13.8621 11.9522 13.1283 12.6861C12.3945 13.4199 11.5233 14.0019 10.5644 14.399C9.60561 14.796 8.57795 15.0002 7.54018 15H0.66041C0.523712 15.0001 0.390352 14.9578 0.278756 14.8788C0.16716 14.7999 0.0828391 14.6882 0.0374445 14.5593C-0.00795015 14.4304 -0.0121772 14.2905 0.0253474 14.159C0.0628721 14.0276 0.140296 13.9111 0.24692 13.8255L1.98094 12.4328C2.01801 12.4031 2.04448 12.3622 2.05637 12.3163C2.06826 12.2703 2.06495 12.2217 2.04692 12.1777L1.22786 10.1648ZM8.06188 1.31965C3.75718 1.31965 0.824926 5.68065 2.44897 9.66686L3.26891 11.6806C3.39384 11.9876 3.41637 12.3267 3.33316 12.6475C3.24995 12.9683 3.06543 13.2537 2.80704 13.4613L2.53519 13.6804H7.54018C8.40465 13.6806 9.26071 13.5105 10.0594 13.1798C10.8581 12.8491 11.5839 12.3642 12.1952 11.7529C12.8064 11.1416 13.2913 10.4159 13.622 9.6172C13.9527 8.81848 14.1228 7.96243 14.1226 7.09795C14.1221 5.56559 13.5132 4.09613 12.4296 3.01259C11.3461 1.92905 9.87664 1.32011 8.34428 1.31965H8.06188Z" fill="black"/>
</svg>
