<svg width="45" height="45" viewBox="0 0 45 45" fill="none" xmlns="http://www.w3.org/2000/svg">
<circle cx="22.5" cy="22.5" r="22.5" fill="#F38284"/>
<path fill-rule="evenodd" clip-rule="evenodd" d="M16.1386 14.1308C16.163 13.8633 16.2399 13.6031 16.3648 13.3653C16.4898 13.1275 16.6604 12.9166 16.8668 12.7447C17.0733 12.5728 17.3116 12.4432 17.5682 12.3634C17.8247 12.2836 18.0944 12.2552 18.362 12.2797L28.9677 13.2451C29.2406 13.2622 29.5073 13.3339 29.7521 13.4558C29.9968 13.5778 30.2146 13.7476 30.3926 13.9552C30.5706 14.1627 30.7052 14.4039 30.7883 14.6644C30.8715 14.9249 30.9016 15.1994 30.8769 15.4718C30.8521 15.7441 30.773 16.0087 30.6442 16.2499C30.5154 16.4911 30.3396 16.7041 30.1271 16.8762C29.9146 17.0483 29.6697 17.176 29.407 17.2518C29.1442 17.3276 28.869 17.35 28.5974 17.3176L17.9897 16.3542C17.7222 16.3298 17.462 16.2529 17.2242 16.128C16.9864 16.003 16.7755 15.8324 16.6036 15.626C16.4317 15.4195 16.3021 15.1812 16.2223 14.9246C16.1426 14.6681 16.1141 14.3984 16.1386 14.1308Z" fill="#A13636"/>
<path fill-rule="evenodd" clip-rule="evenodd" d="M29.9308 27.9194C29.6633 27.9436 29.3936 27.9149 29.1371 27.8348C28.8807 27.7548 28.6426 27.625 28.4363 27.4529C28.23 27.2808 28.0596 27.0698 27.9349 26.8319C27.8102 26.594 27.7336 26.3338 27.7094 26.0662L26.746 15.4606C26.7136 15.189 26.736 14.9138 26.8118 14.651C26.8877 14.3883 27.0154 14.1435 27.1875 13.9309C27.3596 13.7184 27.5725 13.5426 27.8137 13.4138C28.055 13.285 28.3196 13.2059 28.5919 13.1812C28.8642 13.1564 29.1387 13.1865 29.3992 13.2697C29.6597 13.3528 29.9009 13.4874 30.1085 13.6654C30.3161 13.8434 30.4859 14.0612 30.6078 14.306C30.7298 14.5507 30.8014 14.8174 30.8185 15.0903L31.784 25.696C31.8085 25.9637 31.7799 26.2336 31.7 26.4903C31.6201 26.747 31.4904 26.9854 31.3183 27.1919C31.1462 27.3984 30.935 27.5689 30.697 27.6937C30.4589 27.8186 30.1985 27.8953 29.9308 27.9194Z" fill="#A13636"/>
<path fill-rule="evenodd" clip-rule="evenodd" d="M27.3342 16.722C27.5244 16.912 27.6752 17.1376 27.7782 17.3859C27.8811 17.6342 27.9341 17.9004 27.9341 18.1692C27.9341 18.438 27.8811 18.7041 27.7782 18.9525C27.6752 19.2008 27.5244 19.4264 27.3342 19.6163L15.7651 31.1854C15.5752 31.3755 15.3497 31.5262 15.1015 31.6291C14.8533 31.732 14.5873 31.7851 14.3186 31.7852C14.05 31.7853 13.7839 31.7324 13.5357 31.6297C13.2874 31.527 13.0618 31.3764 12.8718 31.1864C12.6817 30.9965 12.531 30.7711 12.4281 30.5229C12.3252 30.2747 12.2722 30.0087 12.2721 29.74C12.272 29.4713 12.3248 29.2053 12.4275 28.957C12.5302 28.7088 12.6809 28.4832 12.8708 28.2932L24.4419 16.722C24.8255 16.3385 25.3457 16.1231 25.888 16.1231C26.4304 16.1231 26.9506 16.3385 27.3342 16.722Z" fill="#A13636"/>
</svg>
