<svg width="20" height="20" viewBox="0 0 11 11" fill="none" xmlns="http://www.w3.org/2000/svg">
<path d="M8.57826 0.0292969L10.7641 2.30785V10.9726H2.59863V11.0009H10.792V2.33652L8.57826 0.0292969Z" fill="#909090"/>
<path d="M8.55072 0H2.57031V10.9716H10.7637V2.30723L8.55072 0Z" fill="#F4F4F4"/>
<path d="M2.51033 0.589844H0V3.27185H7.89635V0.589844H2.51033Z" fill="#7A7B7C"/>
<path d="M7.9381 3.22499H0.0507812V0.541016H7.9381V3.22499Z" fill="#DD2025"/>
<path d="M2.66678 0.996175H2.15332V2.88187H2.55717V2.24584L2.64635 2.25095C2.73303 2.24975 2.81892 2.23422 2.90053 2.20498C2.97227 2.18062 3.03821 2.1417 3.0942 2.09066C3.15162 2.04252 3.19674 1.98138 3.22581 1.91231C3.26558 1.79788 3.27967 1.67609 3.26706 1.5556C3.26482 1.46951 3.24972 1.38423 3.22227 1.3026C3.19754 1.2436 3.16076 1.19041 3.11428 1.14644C3.06781 1.10247 3.01267 1.06868 2.95238 1.04725C2.90042 1.028 2.84656 1.0143 2.79171 1.00639C2.75027 0.999642 2.70837 0.996226 2.66639 0.996175M2.59214 1.89738H2.55717V1.31596H2.63299C2.66646 1.31354 2.70004 1.31868 2.73125 1.33099C2.76246 1.3433 2.7905 1.36246 2.81331 1.38706C2.86058 1.45032 2.88583 1.52731 2.88521 1.60628C2.88521 1.70292 2.88521 1.79052 2.79799 1.8522C2.73518 1.8868 2.66365 1.90276 2.59214 1.89738ZM4.0343 0.991067C3.9907 0.991067 3.94827 0.99421 3.91841 0.995389L3.82491 0.997746H3.51849V2.88344H3.87913C4.01693 2.88699 4.15411 2.86363 4.28298 2.81469C4.38674 2.77372 4.47858 2.7074 4.55012 2.6218C4.62022 2.53583 4.67028 2.43531 4.69665 2.32755C4.72764 2.20574 4.74269 2.08042 4.74144 1.95474C4.74913 1.8063 4.73764 1.65749 4.70726 1.51199C4.67818 1.40501 4.62435 1.30637 4.55012 1.22403C4.4919 1.15744 4.42028 1.1039 4.33994 1.06689C4.27112 1.03499 4.19871 1.01151 4.12427 0.99696C4.09466 0.992108 4.06469 0.989873 4.0347 0.990282M3.9632 2.53695H3.92391V1.33324H3.92902C4.01001 1.32388 4.09197 1.33849 4.16473 1.37528C4.21803 1.41783 4.26145 1.47145 4.29201 1.53242C4.325 1.59659 4.34401 1.66701 4.3478 1.73906C4.35134 1.82549 4.3478 1.8962 4.3478 1.95474C4.34925 2.02216 4.34492 2.08959 4.33484 2.15627C4.32248 2.22465 4.3001 2.29084 4.26844 2.3527C4.23267 2.41039 4.18382 2.45884 4.12584 2.49412C4.0774 2.52555 4.01998 2.54019 3.96241 2.53577M5.95811 0.997746H5.00347V2.88344H5.40733V2.13545H5.91803V1.78502H5.40733V1.34817H5.95732V0.997746" fill="#464648"/>
<path d="M7.66646 7.17212C7.66646 7.17212 8.91888 6.94505 8.91888 7.37287C8.91888 7.80069 8.14299 7.62665 7.66646 7.17212ZM6.7405 7.20473C6.54149 7.24858 6.34756 7.31296 6.16183 7.39683L6.31897 7.04327C6.47611 6.6897 6.63915 6.20767 6.63915 6.20767C6.82619 6.52357 7.0444 6.81995 7.2905 7.09237C7.10523 7.11997 6.92162 7.15774 6.7405 7.20551V7.20473ZM6.24472 4.65118C6.24472 4.27836 6.36533 4.17661 6.45922 4.17661C6.55311 4.17661 6.65879 4.22179 6.66233 4.5455C6.63169 4.871 6.56354 5.19186 6.45922 5.50171C6.31584 5.24174 6.24183 4.94923 6.24433 4.65236L6.24472 4.65118ZM4.41835 8.78243C4.03414 8.55261 5.22409 7.84508 5.43977 7.82229C5.43859 7.82269 4.82063 9.02285 4.41835 8.78243ZM9.28462 7.42355C9.2807 7.38426 9.24534 6.94937 8.47142 6.96784C8.14882 6.96218 7.82636 6.98493 7.50775 7.0358C7.19892 6.72495 6.93309 6.37416 6.71733 5.99278C6.85318 5.59965 6.9355 5.19002 6.96207 4.77493C6.95068 4.30351 6.83793 4.03322 6.47651 4.03715C6.11508 4.04108 6.06244 4.35733 6.10998 4.82797C6.1565 5.14424 6.24433 5.45304 6.37122 5.74646C6.37122 5.74646 6.20426 6.2662 5.98348 6.7832C5.76269 7.30019 5.61184 7.57126 5.61184 7.57126C5.22786 7.69611 4.86641 7.8818 4.54131 8.12126C4.2176 8.42257 4.08599 8.65396 4.25649 8.88536C4.40342 9.08493 4.91767 9.1301 5.3773 8.52786C5.6211 8.2165 5.8442 7.88946 6.04515 7.54887C6.04515 7.54887 6.74601 7.35676 6.96404 7.30412C7.18207 7.25148 7.44568 7.20984 7.44568 7.20984C7.44568 7.20984 8.08564 7.85372 8.70281 7.83094C9.31998 7.80815 9.29012 7.46205 9.2862 7.42433" fill="#DD2025"/>
<path d="M8.52051 0.0292969V2.33653H10.7335L8.52051 0.0292969Z" fill="#909090"/>
<path d="M8.55078 0V2.30723H10.7637L8.55078 0Z" fill="#F4F4F4"/>
<path d="M2.63651 0.964925H2.12305V2.85062H2.52847V2.21498L2.61804 2.22009C2.70472 2.2189 2.79061 2.20337 2.87222 2.17413C2.94396 2.14977 3.0099 2.11085 3.06589 2.05981C3.12289 2.01153 3.16759 1.9504 3.19632 1.88145C3.2361 1.76702 3.25018 1.64523 3.23757 1.52474C3.23533 1.43865 3.22024 1.35337 3.19279 1.27174C3.16805 1.21274 3.13127 1.15955 3.08479 1.11558C3.03832 1.07161 2.98318 1.03782 2.9229 1.01639C2.87069 0.996953 2.81656 0.983126 2.76143 0.975139C2.72 0.968392 2.67809 0.964976 2.63611 0.964925M2.56186 1.86613H2.5269V1.28471H2.60311C2.63658 1.28229 2.67015 1.28743 2.70137 1.29974C2.73258 1.31205 2.76062 1.33121 2.78343 1.35581C2.8307 1.41907 2.85595 1.49606 2.85533 1.57503C2.85533 1.67167 2.85533 1.75927 2.76811 1.82095C2.7053 1.85555 2.63377 1.87111 2.56226 1.86574M4.00403 0.959817C3.96042 0.959817 3.91799 0.96296 3.88814 0.964139L3.79582 0.966496H3.48939V2.85219H3.85003C3.98784 2.85574 4.12501 2.83238 4.25388 2.78344C4.35764 2.74247 4.44949 2.67615 4.52102 2.59055C4.59113 2.50458 4.64119 2.40406 4.66756 2.2963C4.69854 2.17449 4.7136 2.04917 4.71234 1.92349C4.72003 1.77505 4.70855 1.62624 4.67817 1.48074C4.64908 1.37376 4.59525 1.27512 4.52102 1.19278C4.4628 1.12619 4.39118 1.07265 4.31085 1.03564C4.24203 1.00374 4.16961 0.980259 4.09517 0.96571C4.06557 0.960858 4.0356 0.958623 4.0056 0.959032M3.9341 2.5057H3.89482V1.30199H3.89992C3.98091 1.29263 4.06287 1.30724 4.13563 1.34403C4.18893 1.38658 4.23236 1.4402 4.26292 1.50117C4.2959 1.56534 4.31491 1.63576 4.3187 1.70781C4.32224 1.79424 4.3187 1.86495 4.3187 1.92349C4.32016 1.99091 4.31582 2.05834 4.30574 2.12502C4.29338 2.1934 4.27101 2.25959 4.23935 2.32145C4.20358 2.37914 4.15473 2.42759 4.09674 2.46287C4.04831 2.4943 3.99088 2.50894 3.93332 2.50452M5.92783 0.966496H4.9732V2.85219H5.37705V2.1042H5.88776V1.75377H5.37705V1.31692H5.92705V0.966496" fill="white"/>
</svg>
