<svg width="43" height="40" viewBox="0 0 13 10" fill="none" xmlns="http://www.w3.org/2000/svg">
<path d="M1.5 0.664062C1.30109 0.664063 1.11032 0.741655 0.96967 0.879772C0.829018 1.01789 0.75 1.20521 0.75 1.40054C0.75 1.59587 0.829018 1.78319 0.96967 1.92131C1.11032 2.05943 1.30109 2.13702 1.5 2.13702H2C2.19891 2.13702 2.38968 2.05943 2.53033 1.92131C2.67098 1.78319 2.75 1.59587 2.75 1.40054C2.75 1.20521 2.67098 1.01789 2.53033 0.879772C2.38968 0.741655 2.19891 0.664063 2 0.664062H1.5ZM5 0.664062C4.80109 0.664063 4.61032 0.741655 4.46967 0.879772C4.32902 1.01789 4.25 1.20521 4.25 1.40054C4.25 1.59587 4.32902 1.78319 4.46967 1.92131C4.61032 2.05943 4.80109 2.13702 5 2.13702H11.5C11.6989 2.13702 11.8897 2.05943 12.0303 1.92131C12.171 1.78319 12.25 1.59587 12.25 1.40054C12.25 1.20521 12.171 1.01789 12.0303 0.879772C11.8897 0.741655 11.6989 0.664063 11.5 0.664062H5ZM1.5 4.10096C1.30109 4.10096 1.11032 4.17856 0.96967 4.31667C0.829018 4.45479 0.75 4.64211 0.75 4.83744C0.75 5.03277 0.829018 5.22009 0.96967 5.35821C1.11032 5.49633 1.30109 5.57392 1.5 5.57392H2C2.19891 5.57392 2.38968 5.49633 2.53033 5.35821C2.67098 5.22009 2.75 5.03277 2.75 4.83744C2.75 4.64211 2.67098 4.45479 2.53033 4.31667C2.38968 4.17856 2.19891 4.10096 2 4.10096H1.5ZM5 4.10096C4.80109 4.10096 4.61032 4.17856 4.46967 4.31667C4.32902 4.45479 4.25 4.64211 4.25 4.83744C4.25 5.03277 4.32902 5.22009 4.46967 5.35821C4.61032 5.49633 4.80109 5.57392 5 5.57392H11.5C11.6989 5.57392 11.8897 5.49633 12.0303 5.35821C12.171 5.22009 12.25 5.03277 12.25 4.83744C12.25 4.64211 12.171 4.45479 12.0303 4.31667C11.8897 4.17856 11.6989 4.10096 11.5 4.10096H5ZM1.5 7.53786C1.30109 7.53786 1.11032 7.61545 0.96967 7.75357C0.829018 7.89169 0.75 8.07901 0.75 8.27434C0.75 8.46967 0.829018 8.65699 0.96967 8.79511C1.11032 8.93322 1.30109 9.01082 1.5 9.01082H2C2.19891 9.01082 2.38968 8.93322 2.53033 8.79511C2.67098 8.65699 2.75 8.46967 2.75 8.27434C2.75 8.07901 2.67098 7.89169 2.53033 7.75357C2.38968 7.61545 2.19891 7.53786 2 7.53786H1.5ZM5 7.53786C4.80109 7.53786 4.61032 7.61545 4.46967 7.75357C4.32902 7.89169 4.25 8.07901 4.25 8.27434C4.25 8.46967 4.32902 8.65699 4.46967 8.79511C4.61032 8.93322 4.80109 9.01082 5 9.01082H11.5C11.6989 9.01082 11.8897 8.93322 12.0303 8.79511C12.171 8.65699 12.25 8.46967 12.25 8.27434C12.25 8.07901 12.171 7.89169 12.0303 7.75357C11.8897 7.61545 11.6989 7.53786 11.5 7.53786H5Z" fill="#616161"/>
</svg>
