<svg width="20" height="20" viewBox="0 0 20 20" fill="none" xmlns="http://www.w3.org/2000/svg">
<path d="M17.1015 7.63181H2.89993C2.61253 7.63213 2.32891 7.6974 2.07029 7.82276C1.81166 7.94811 1.58472 8.1303 1.40641 8.3557C1.22885 8.58047 1.10477 8.84271 1.04357 9.12255C0.982381 9.40238 0.98568 9.69247 1.05322 9.97084L2.57593 16.2057C2.79639 17.009 3.27507 17.7174 3.93809 18.2217C4.60166 18.7267 5.4141 19.0001 6.24989 19.0001H13.7496C14.5854 19.0001 15.3978 18.7267 16.0614 18.2217C16.7244 17.7174 17.2031 17.009 17.4235 16.2057L18.9463 9.97181C19.0487 9.55154 19.0038 9.10882 18.8189 8.71774C18.634 8.32666 18.3203 8.01096 17.9305 7.82348C17.6711 7.69894 17.3873 7.63348 17.0995 7.63181M6.19345 11.4206V15.2103M10.0007 11.4206V15.2103M13.808 11.4206V15.2103M16.6636 7.63181C16.6633 6.76006 16.4907 5.89698 16.1558 5.09216C15.8208 4.28734 15.3301 3.55664 14.7119 2.94206C13.4601 1.69714 11.7661 0.998836 10.0007 1C8.23529 0.998836 6.54131 1.69714 5.28956 2.94206C4.67149 3.55672 4.18097 4.28745 3.84618 5.09227C3.5114 5.89709 3.33895 6.76013 3.33874 7.63181" stroke="#252525" stroke-width="1.5" stroke-linecap="round" stroke-linejoin="round"/>
</svg>
