<svg width="21" height="20" viewBox="0 0 21 20" fill="none" xmlns="http://www.w3.org/2000/svg">
<path d="M18.3846 5.45422H15.9901L14.6362 0.407957C14.5945 0.267554 14.5003 0.148587 14.3733 0.0756876C14.2462 0.00278803 14.096 -0.0184612 13.9537 0.0163398C13.8826 0.0344589 13.8159 0.0666691 13.7574 0.111061C13.699 0.155453 13.6501 0.211124 13.6135 0.274774C13.577 0.338424 13.5536 0.408757 13.5448 0.481606C13.536 0.554455 13.5419 0.628336 13.5621 0.698872L14.8376 5.45422H5.29339L6.56894 0.698872C6.58744 0.627605 6.59169 0.553387 6.58144 0.480475C6.5712 0.407563 6.54666 0.337391 6.50924 0.273981C6.47181 0.210572 6.42224 0.155173 6.36337 0.110961C6.30449 0.0667497 6.23747 0.0345944 6.16614 0.0163398C6.02389 -0.017615 5.87405 0.00400483 5.7472 0.0767851C5.62036 0.149565 5.52607 0.268017 5.4836 0.407957L4.14092 5.45422H1.73527C1.32592 5.46058 0.933019 5.61635 0.630506 5.8922C0.327993 6.16804 0.136737 6.54495 0.0927342 6.95198C0.0487314 7.359 0.155017 7.76808 0.391586 8.10221C0.628156 8.43633 0.978693 8.67247 1.37722 8.76618L2.20521 17.4601C2.26689 18.1555 2.58744 18.8025 3.1034 19.2728C3.61935 19.7432 4.29311 20.0027 4.99129 20H15.1286C15.8267 20.0027 16.5005 19.7432 17.0165 19.2728C17.5324 18.8025 17.853 18.1555 17.9146 17.4601L18.7426 8.76618C19.1412 8.67247 19.4917 8.43633 19.7283 8.10221C19.9648 7.76808 20.0711 7.359 20.0271 6.95198C19.9831 6.54495 19.7919 6.16804 19.4893 5.8922C19.1868 5.61635 18.7939 5.46058 18.3846 5.45422ZM16.8069 17.3594C16.7678 17.7768 16.5738 18.1645 16.2632 18.4461C15.9526 18.7277 15.5478 18.8829 15.1286 18.8811H4.99129C4.57201 18.8829 4.16724 18.7277 3.85663 18.4461C3.54601 18.1645 3.35206 17.7768 3.31293 17.3594L2.50732 8.81093H17.6125L16.8069 17.3594ZM18.3846 7.69203H1.73527C1.58779 7.68916 1.44715 7.6293 1.34285 7.525C1.23855 7.42069 1.17868 7.28005 1.17582 7.13257C1.17582 6.9842 1.23476 6.8419 1.33968 6.73698C1.4446 6.63206 1.5869 6.57312 1.73527 6.57312H18.3846C18.533 6.57312 18.6753 6.63206 18.7802 6.73698C18.8851 6.8419 18.944 6.9842 18.944 7.13257C18.9412 7.28005 18.8813 7.42069 18.777 7.525C18.6727 7.6293 18.5321 7.68916 18.3846 7.69203Z" fill="black"/>
<path d="M7.26307 16.0782C7.11469 16.0782 6.97239 16.0192 6.86747 15.9143C6.76255 15.8094 6.70361 15.6671 6.70361 15.5187V12.162C6.70361 12.0136 6.76255 11.8713 6.86747 11.7664C6.97239 11.6615 7.11469 11.6025 7.26307 11.6025C7.41144 11.6025 7.55374 11.6615 7.65866 11.7664C7.76358 11.8713 7.82252 12.0136 7.82252 12.162V15.5187C7.82252 15.6671 7.76358 15.8094 7.65866 15.9143C7.55374 16.0192 7.41144 16.0782 7.26307 16.0782ZM12.8576 16.0782C12.7092 16.0782 12.5669 16.0192 12.462 15.9143C12.3571 15.8094 12.2981 15.6671 12.2981 15.5187V12.162C12.2981 12.0136 12.3571 11.8713 12.462 11.7664C12.5669 11.6615 12.7092 11.6025 12.8576 11.6025C13.006 11.6025 13.1483 11.6615 13.2532 11.7664C13.3581 11.8713 13.417 12.0136 13.417 12.162V15.5187C13.417 15.6671 13.3581 15.8094 13.2532 15.9143C13.1483 16.0192 13.006 16.0782 12.8576 16.0782Z" fill="black"/>
</svg>
