<svg width="18" height="21" viewBox="0 0 18 21" fill="none" xmlns="http://www.w3.org/2000/svg">
<path d="M14.534 5.95582C13.7989 5.21834 12.9253 4.63344 11.9634 4.23478C11.0015 3.83611 9.97025 3.63154 8.929 3.63282C6.82618 3.63308 4.80956 4.46854 3.32264 5.95546C1.83572 7.44238 1.00027 9.459 1 11.5618C1.00026 13.6656 1.8354 15.6832 3.32203 17.1717C4.80867 18.6602 6.82526 19.4979 8.929 19.5008C11.0329 19.4979 13.0497 18.6601 14.5363 17.1714C16.023 15.6826 16.858 13.6647 16.858 11.5608" stroke="#6C757D" stroke-width="1.5" stroke-miterlimit="10" stroke-linecap="round"/>
<path d="M13.8089 1L14.7589 4.858C14.8432 5.19997 14.7885 5.56143 14.6066 5.86307C14.4248 6.16471 14.1307 6.38191 13.7889 6.467L9.91992 7.415" stroke="#6C757D" stroke-width="1.5" stroke-linecap="round" stroke-linejoin="round"/>
</svg>
