<svg width="18" height="18" viewBox="0 0 18 18" fill="none" xmlns="http://www.w3.org/2000/svg">
<path d="M0.692322 3.72935e-08C0.508707 3.72935e-08 0.332612 0.0729408 0.202776 0.202776C0.0729407 0.332612 0 0.508707 0 0.692322C0 0.875937 0.0729407 1.05203 0.202776 1.18187C0.332612 1.3117 0.508707 1.38464 0.692322 1.38464V3.72935e-08ZM2.53851 0.692322L3.22899 0.638782C3.2155 0.464918 3.1369 0.302548 3.00889 0.184123C2.88088 0.0656978 2.7129 -5.71676e-05 2.53851 3.72935e-08V0.692322ZM17.308 3.46161L17.9957 3.53823C18.0065 3.44147 17.9968 3.34354 17.9671 3.25081C17.9375 3.15808 17.8886 3.07264 17.8237 3.00008C17.7588 2.92752 17.6794 2.86946 17.5905 2.82969C17.5016 2.78992 17.4054 2.76934 17.308 2.76929V3.46161ZM0.692322 1.38464H2.53851V3.72935e-08H0.692322V1.38464ZM5.34195 13.252L14.9006 12.5698L14.8018 11.1888L5.24411 11.8719L5.34195 13.252ZM17.2425 10.3174L17.9957 3.53823L16.6203 3.38499L15.8671 10.1651L17.2425 10.3174ZM1.84804 0.744938L2.06127 3.51515L3.44222 3.40807L3.22899 0.638782L1.84804 0.744938ZM2.06127 3.51515L2.63082 10.9147L4.01085 10.8085L3.44222 3.40807L2.06127 3.51515ZM17.308 2.76929H2.75082V4.15393H17.308V2.76929ZM14.9006 12.5698C15.4927 12.5274 16.0513 12.2789 16.4791 11.8674C16.907 11.4559 17.1771 10.9075 17.2425 10.3174L15.8671 10.1651C15.8373 10.4334 15.7144 10.6828 15.5198 10.8698C15.3252 11.0569 15.0711 11.1698 14.8018 11.1888L14.9006 12.5698ZM5.24411 11.871C4.93999 11.8929 4.63958 11.7935 4.4085 11.5946C4.17742 11.3957 4.03445 11.1134 4.01085 10.8094L2.63082 10.9147C2.6823 11.5834 2.99633 12.2046 3.50431 12.6425C4.0123 13.0804 4.67295 13.2995 5.34195 13.252L5.24411 11.871Z" fill="black"/>
<path d="M5.76953 16.8467H5.77876V16.8559H5.76953V16.8467ZM14.0774 16.8467H14.0866V16.8559H14.0774V16.8467Z" stroke="black" stroke-width="2.25" stroke-linejoin="round"/>
</svg>
