<svg width="16" height="15" viewBox="0 0 16 15" fill="none" xmlns="http://www.w3.org/2000/svg">
<path d="M14.0626 14.6078L8.89461 9.60719C8.48445 9.92469 8.01276 10.176 7.47956 10.3613C6.94635 10.5465 6.37896 10.6391 5.77739 10.6391C4.28714 10.6391 3.0259 10.1397 1.99367 9.14086C0.96143 8.14206 0.445312 6.92167 0.445312 5.47969C0.445312 4.03771 0.96143 2.81732 1.99367 1.81852C3.0259 0.819714 4.28714 0.320312 5.77739 0.320312C7.26764 0.320312 8.52888 0.819714 9.56112 1.81852C10.5934 2.81732 11.1095 4.03771 11.1095 5.47969C11.1095 6.06177 11.0138 6.61078 10.8224 7.12672C10.631 7.64266 10.3712 8.09906 10.0431 8.49594L15.2111 13.4966L14.0626 14.6078ZM5.77739 9.05156C6.80279 9.05156 7.67438 8.7043 8.39216 8.00977C9.10994 7.31524 9.46883 6.47188 9.46883 5.47969C9.46883 4.4875 9.10994 3.64414 8.39216 2.94961C7.67438 2.25508 6.80279 1.90781 5.77739 1.90781C4.75199 1.90781 3.8804 2.25508 3.16262 2.94961C2.44484 3.64414 2.08595 4.4875 2.08595 5.47969C2.08595 6.47188 2.44484 7.31524 3.16262 8.00977C3.8804 8.7043 4.75199 9.05156 5.77739 9.05156Z" fill="black"/>
</svg>
