<svg width="13" height="15" viewBox="0 0 13 15" fill="none" xmlns="http://www.w3.org/2000/svg">
<path d="M9.56698 14.151V12.1667H7.51618V10.8437H9.56698V8.85937H10.9342V10.8437H12.985V12.1667H10.9342V14.151H9.56698ZM1.36378 12.8281C0.987802 12.8281 0.66594 12.6986 0.398197 12.4395C0.130454 12.1804 -0.00341797 11.869 -0.00341797 11.5052V2.24479C-0.00341797 1.88099 0.130454 1.56955 0.398197 1.31048C0.66594 1.05141 0.987802 0.921875 1.36378 0.921875H10.9342C11.3102 0.921875 11.632 1.05141 11.8998 1.31048C12.1675 1.56955 12.3014 1.88099 12.3014 2.24479V8.08216C12.0963 7.96089 11.8798 7.86167 11.652 7.7845C11.4241 7.70733 11.1848 7.6467 10.9342 7.6026V2.24479H1.36378V11.5052H6.14898C6.14898 11.7367 6.16607 11.9627 6.20025 12.1832C6.23443 12.4037 6.2914 12.6187 6.37115 12.8281H1.36378ZM3.41458 10.1823C3.60827 10.1823 3.77062 10.1189 3.90165 9.99212C4.03267 9.86534 4.09818 9.70825 4.09818 9.52083C4.09818 9.33342 4.03267 9.17632 3.90165 9.04954C3.77062 8.92276 3.60827 8.85937 3.41458 8.85937C3.22089 8.85937 3.05854 8.92276 2.92752 9.04954C2.79649 9.17632 2.73098 9.33342 2.73098 9.52083C2.73098 9.70825 2.79649 9.86534 2.92752 9.99212C3.05854 10.1189 3.22089 10.1823 3.41458 10.1823ZM3.41458 7.53646C3.60827 7.53646 3.77062 7.47307 3.90165 7.34629C4.03267 7.21951 4.09818 7.06241 4.09818 6.875C4.09818 6.68759 4.03267 6.53049 3.90165 6.40371C3.77062 6.27693 3.60827 6.21354 3.41458 6.21354C3.22089 6.21354 3.05854 6.27693 2.92752 6.40371C2.79649 6.53049 2.73098 6.68759 2.73098 6.875C2.73098 7.06241 2.79649 7.21951 2.92752 7.34629C3.05854 7.47307 3.22089 7.53646 3.41458 7.53646ZM3.41458 4.89062C3.60827 4.89062 3.77062 4.82723 3.90165 4.70046C4.03267 4.57368 4.09818 4.41658 4.09818 4.22917C4.09818 4.04175 4.03267 3.88466 3.90165 3.75788C3.77062 3.6311 3.60827 3.56771 3.41458 3.56771C3.22089 3.56771 3.05854 3.6311 2.92752 3.75788C2.79649 3.88466 2.73098 4.04175 2.73098 4.22917C2.73098 4.41658 2.79649 4.57368 2.92752 4.70046C3.05854 4.82723 3.22089 4.89062 3.41458 4.89062ZM5.46538 7.53646H9.56698V6.21354H5.46538V7.53646ZM5.46538 4.89062H9.56698V3.56771H5.46538V4.89062ZM5.46538 10.1823H6.38824C6.47939 9.92873 6.59332 9.69171 6.73004 9.47122C6.86676 9.25074 7.02627 9.04679 7.20856 8.85937H5.46538V10.1823Z" fill="#00A1FF"/>
</svg>
