<svg width="48" height="49" viewBox="0 0 18 19" fill="none" xmlns="http://www.w3.org/2000/svg">
<path d="M6.75 11.0234C6.94891 11.0234 7.13968 11.1025 7.28033 11.2431C7.42098 11.3838 7.5 11.5745 7.5 11.7734V13.7734C7.5 13.9723 7.42098 14.1631 7.28033 14.3038C7.13968 14.4444 6.94891 14.5234 6.75 14.5234C6.55109 14.5234 6.36032 14.4444 6.21967 14.3038C6.07902 14.1631 6 13.9723 6 13.7734V11.7734C6 11.5745 6.07902 11.3838 6.21967 11.2431C6.36032 11.1025 6.55109 11.0234 6.75 11.0234ZM11.5 11.7734C11.5 11.5745 11.421 11.3838 11.2803 11.2431C11.1397 11.1025 10.9489 11.0234 10.75 11.0234C10.5511 11.0234 10.3603 11.1025 10.2197 11.2431C10.079 11.3838 10 11.5745 10 11.7734V13.7734C10 13.9723 10.079 14.1631 10.2197 14.3038C10.3603 14.4444 10.5511 14.5234 10.75 14.5234C10.9489 14.5234 11.1397 14.4444 11.2803 14.3038C11.421 14.1631 11.5 13.9723 11.5 13.7734V11.7734Z" fill="black"/>
<path fill-rule="evenodd" clip-rule="evenodd" d="M6.39957 1.14848C6.49903 0.976088 6.52593 0.771249 6.47436 0.579024C6.42279 0.3868 6.29697 0.222935 6.12458 0.123479C5.95218 0.0240225 5.74735 -0.00287808 5.55512 0.0486944C5.3629 0.100267 5.19903 0.226088 5.09958 0.398479L3.09958 3.86248C3.07191 3.91402 3.04882 3.9679 3.03058 4.02348H2.74958C2.18213 4.02357 1.6286 4.19919 1.16491 4.52626C0.701207 4.85334 0.35004 5.31585 0.159562 5.85037C-0.0309158 6.38489 -0.0513778 6.96525 0.100982 7.51186C0.253342 8.05847 0.571063 8.54456 1.01058 8.90348L1.67758 13.4885L2.12458 15.5815C2.25524 16.1936 2.57108 16.7507 3.02923 17.1772C3.48738 17.6037 4.06566 17.8789 4.68558 17.9655C7.38258 18.3405 10.1176 18.3405 12.8136 17.9655C13.4335 17.8789 14.0118 17.6037 14.4699 17.1772C14.9281 16.7507 15.2439 16.1936 15.3746 15.5815L15.8216 13.4885L16.4886 8.90448C16.9285 8.54566 17.2466 8.05949 17.3992 7.5127C17.5518 6.96591 17.5314 6.3853 17.3409 5.85054C17.1504 5.31578 16.799 4.85309 16.335 4.52596C15.8711 4.19884 15.3173 4.02331 14.7496 4.02348H14.4686C14.4501 3.96752 14.4266 3.91331 14.3986 3.86148L12.3986 0.397479C12.3513 0.308616 12.2865 0.230191 12.2083 0.166877C12.13 0.103562 12.0398 0.0566559 11.943 0.0289529C11.8462 0.00124988 11.7448 -0.00668247 11.6449 0.00562864C11.545 0.0179397 11.4485 0.0502422 11.3614 0.100611C11.2742 0.150979 11.1981 0.218383 11.1375 0.298804C11.0769 0.379224 11.0332 0.471016 11.0088 0.568707C10.9845 0.666398 10.9801 0.767989 10.9958 0.867424C11.0116 0.966859 11.0472 1.0621 11.1006 1.14748L12.7606 4.02248H4.73957L6.39957 1.14848ZM14.8836 9.52048L14.7496 9.52348H2.74958C2.70424 9.52348 2.65991 9.52248 2.61658 9.52048L3.15458 13.2235L3.59158 15.2685C3.65805 15.5794 3.81853 15.8624 4.05125 16.079C4.28398 16.2956 4.5777 16.4354 4.89257 16.4795C7.45157 16.8355 10.0476 16.8355 12.6066 16.4795C12.9213 16.4355 13.2149 16.2958 13.4477 16.0794C13.6804 15.863 13.8409 15.5802 13.9076 15.2695L14.3446 13.2235L14.8836 9.52048ZM1.49958 6.77348C1.49958 6.08348 2.05958 5.52348 2.74958 5.52348H14.7496C15.0811 5.52348 15.399 5.65518 15.6335 5.8896C15.8679 6.12402 15.9996 6.44196 15.9996 6.77348C15.9996 7.105 15.8679 7.42294 15.6335 7.65736C15.399 7.89178 15.0811 8.02348 14.7496 8.02348H2.74958C2.05958 8.02348 1.49958 7.46348 1.49958 6.77348Z" fill="black"/>
</svg>
