<svg width="5" height="19" viewBox="0 0 5 19" fill="none" xmlns="http://www.w3.org/2000/svg">
<path d="M2.2963 18.6667C1.66481 18.6667 1.12423 18.4382 0.674537 17.9812C0.224846 17.5243 0 16.975 0 16.3333C0 15.6917 0.224846 15.1424 0.674537 14.6854C1.12423 14.2285 1.66481 14 2.2963 14C2.92778 14 3.46836 14.2285 3.91806 14.6854C4.36775 15.1424 4.59259 15.6917 4.59259 16.3333C4.59259 16.975 4.36775 17.5243 3.91806 17.9812C3.46836 18.4382 2.92778 18.6667 2.2963 18.6667ZM2.2963 11.6667C1.66481 11.6667 1.12423 11.4382 0.674537 10.9812C0.224846 10.5243 0 9.975 0 9.33333C0 8.69167 0.224846 8.14236 0.674537 7.68542C1.12423 7.22847 1.66481 7 2.2963 7C2.92778 7 3.46836 7.22847 3.91806 7.68542C4.36775 8.14236 4.59259 8.69167 4.59259 9.33333C4.59259 9.975 4.36775 10.5243 3.91806 10.9812C3.46836 11.4382 2.92778 11.6667 2.2963 11.6667ZM2.2963 4.66667C1.66481 4.66667 1.12423 4.43819 0.674537 3.98125C0.224846 3.52431 0 2.975 0 2.33333C0 1.69167 0.224846 1.14236 0.674537 0.685417C1.12423 0.228472 1.66481 0 2.2963 0C2.92778 0 3.46836 0.228472 3.91806 0.685417C4.36775 1.14236 4.59259 1.69167 4.59259 2.33333C4.59259 2.975 4.36775 3.52431 3.91806 3.98125C3.46836 4.43819 2.92778 4.66667 2.2963 4.66667Z" fill="black"/>
</svg>
